<svg width="145" height="30" viewBox="0 0 145 30" fill="none" xmlns="http://www.w3.org/2000/svg">
<g clip-path="url(#clip0_10422_6494)">
<path d="M16.6078 4.80454C17.6292 3.51828 18.348 1.77806 18.1589 0C16.6456 0.075662 14.7919 0.983607 13.7326 2.30769C12.7869 3.40479 11.9168 5.22068 12.1437 6.92308C13.8461 7.0744 15.5107 6.05296 16.6078 4.80454Z" fill="white"/>
<path d="M18.121 7.22573C15.662 7.0744 13.5435 8.62547 12.3707 8.62547C11.198 8.62547 9.38206 7.30139 7.45268 7.33922C4.918 7.37705 2.53465 8.81463 1.24839 11.1223C-1.39978 15.6999 0.567435 22.4716 3.13994 26.1791C4.38837 28.0328 5.90161 30.0378 7.90665 29.9622C9.7982 29.8865 10.517 28.7516 12.7869 28.7516C15.0567 28.7516 15.7377 29.9622 17.7049 29.9243C19.7856 29.8865 21.0718 28.0706 22.3203 26.2547C23.7579 24.174 24.3631 22.1311 24.3631 22.0177C24.3253 21.9798 20.3909 20.4666 20.3531 15.9269C20.3152 12.1438 23.4552 10.3279 23.6065 10.2144C21.8663 7.60404 19.1046 7.30139 18.121 7.22573Z" fill="white"/>
<path d="M32.0429 4.38849C32.0429 3.06441 33.14 2.04297 34.4262 2.04297C35.7503 2.04297 36.8474 3.06441 36.8474 4.38849C36.8474 5.71258 35.7881 6.77185 34.4262 6.77185C33.1021 6.77185 32.0429 5.71258 32.0429 4.38849ZM32.3455 9.68483H36.5069V29.7353H32.3455V9.68483Z" fill="white"/>
<path d="M51.6393 2.11841C57.0113 2.11841 60.7188 5.82585 60.7188 11.1979C60.7188 16.6077 56.8979 20.3151 51.488 20.3151H45.5485V29.7729H41.2736V2.11841H51.6393ZM45.5485 16.7212H50.4666C54.2118 16.7212 56.3304 14.7161 56.3304 11.2357C56.3304 7.75523 54.2118 5.75019 50.5044 5.75019H45.5485V16.7212Z" fill="white"/>
<path d="M63.6318 2.11841H67.7554V13.1272H67.831C69.0416 10.7439 71.1223 9.49546 74.1866 9.49546C78.6129 9.49546 81.2232 12.4463 81.2232 16.986V29.7729H77.0618V17.7426C77.0618 14.8296 75.5864 13.0137 72.7112 13.0137C69.6469 13.0137 67.7932 15.0944 67.7932 18.2723V29.7351H63.6318V2.11841Z" fill="white"/>
<path d="M84.1362 19.71C84.1362 13.3922 87.8815 9.45776 93.6696 9.45776C99.4578 9.45776 103.203 13.43 103.203 19.71C103.203 26.0656 99.5334 30 93.6696 30C87.8436 30 84.1362 26.0656 84.1362 19.71ZM98.9659 19.71C98.9659 15.3972 96.9609 12.8626 93.6696 12.8626C90.3405 12.8626 88.3354 15.3972 88.3354 19.71C88.3354 24.0605 90.3405 26.5952 93.6696 26.5952C96.9987 26.5952 98.9659 24.0605 98.9659 19.71Z" fill="white"/>
<path d="M106.116 9.68475H110.088V13.0895H110.164C111.375 10.7062 113.38 9.45776 116.482 9.45776C120.908 9.45776 123.443 12.2951 123.443 16.8726V29.7352H119.319V17.7049C119.319 14.7163 117.919 13.0139 115.044 13.0139C112.055 13.0139 110.277 15.0946 110.277 18.1967V29.7352H106.154V9.68475H106.116Z" fill="white"/>
<path d="M144.477 23.8336C143.909 27.4653 140.391 30 135.851 30C129.987 30 126.356 26.1034 126.356 19.8235C126.356 13.5435 130.025 9.45776 135.662 9.45776C141.185 9.45776 144.704 13.2787 144.704 19.3317V20.7692H130.517V21.0341C130.517 24.4388 132.673 26.6709 135.889 26.6709C138.197 26.6709 139.975 25.5738 140.542 23.8714H144.477V23.8336ZM130.555 17.8563H140.542C140.467 14.7919 138.499 12.7491 135.662 12.7491C132.825 12.7869 130.782 14.8298 130.555 17.8563Z" fill="white"/>
</g>
<defs>
<clipPath id="clip0_10422_6494">
<rect width="144.704" height="30" fill="white"/>
</clipPath>
</defs>
</svg>
