<svg width="174" height="36" viewBox="0 0 174 36" fill="none" xmlns="http://www.w3.org/2000/svg">
<g clip-path="url(#clip0_10422_6514)">
<path d="M99.4546 23.2998H100.139V26.6758H99.4546C98.5561 26.6768 97.6662 26.4956 96.8359 26.1427C96.0056 25.7898 95.2512 25.272 94.6159 24.619C93.9805 23.966 93.4768 23.1906 93.1334 22.3372C92.79 21.4838 92.6137 20.5692 92.6147 19.6457V4.92127H95.8994V9.32469H100.139V12.7007H95.8994V19.6535C95.9014 20.622 96.2766 21.5502 96.9429 22.235C97.6092 22.9198 98.5123 23.3055 99.4546 23.3075M139.224 23.632C138.141 23.632 137.083 23.3022 136.183 22.6842C135.284 22.0662 134.582 21.1879 134.168 20.1602C133.754 19.1325 133.646 18.0017 133.857 16.9108C134.068 15.8198 134.589 14.8177 135.354 14.0312C136.12 13.2446 137.095 12.709 138.156 12.492C139.217 12.275 140.318 12.3864 141.318 12.812C142.317 13.2377 143.172 13.9586 143.773 14.8834C144.374 15.8083 144.695 16.8956 144.695 18.008C144.691 19.4983 144.114 20.9264 143.088 21.9803C142.063 23.0341 140.674 23.6279 139.224 23.632ZM139.224 9.00795C137.491 9.00795 135.798 9.53599 134.358 10.5253C132.918 11.5145 131.795 12.9206 131.133 14.5656C130.47 16.2106 130.297 18.0206 130.636 19.7666C130.974 21.5127 131.809 23.1163 133.034 24.3747C134.26 25.633 135.821 26.4896 137.52 26.836C139.219 27.1824 140.98 27.003 142.58 26.3207C144.18 25.6383 145.547 24.4835 146.508 23.0025C147.469 21.5214 147.982 19.7806 147.98 18.0002C147.98 15.6133 147.057 13.3241 145.415 11.6363C143.773 9.94845 141.546 9.00024 139.224 9.00024M164.493 23.6243C163.411 23.6243 162.353 23.2944 161.453 22.6764C160.554 22.0585 159.852 21.1801 159.438 20.1525C159.024 19.1248 158.916 17.994 159.127 16.903C159.338 15.8121 159.859 14.81 160.624 14.0234C161.39 13.2369 162.365 12.7013 163.426 12.4843C164.487 12.2673 165.588 12.3786 166.587 12.8043C167.587 13.23 168.442 13.9508 169.043 14.8757C169.644 15.8006 169.965 16.8879 169.965 18.0002C169.961 19.4906 169.384 20.9187 168.358 21.9725C167.333 23.0264 165.943 23.6202 164.493 23.6243ZM164.493 9.00024C162.171 9.00024 159.944 9.94845 158.302 11.6363C156.659 13.3241 155.737 15.6133 155.737 18.0002C155.737 20.3872 156.659 22.6764 158.302 24.3642C159.944 26.052 162.171 27.0003 164.493 27.0003C166.547 27.0041 168.535 26.2565 170.101 24.8912V26.6758H173.25V18.0002C173.242 15.6158 172.317 13.3313 170.677 11.6453C169.036 9.95922 166.813 9.00838 164.493 9.00024ZM127.821 9.32469H129.37V12.7007H127.821C126.879 12.7027 125.976 13.0883 125.31 13.7732C124.643 14.458 124.268 15.3862 124.266 16.3547V26.668H120.981V16.3625C120.98 15.439 121.157 14.5244 121.5 13.671C121.843 12.8176 122.347 12.0422 122.983 11.3892C123.618 10.7362 124.372 10.2184 125.203 9.86547C126.033 9.51254 126.923 9.33141 127.821 9.33242M150.167 4.92898H153.452V27.0079H150.137L150.167 4.92898ZM70.7196 15.9839V26.6758H67.4575V15.9839C67.4575 15.0138 67.0826 14.0834 66.4151 13.3974C65.7477 12.7114 64.8425 12.326 63.8985 12.326C62.9546 12.326 62.0494 12.7114 61.3819 13.3974C60.7145 14.0834 60.3396 15.0138 60.3396 15.9839V26.6758H57.0549V15.9839C57.0549 15.0138 56.68 14.0834 56.0125 13.3974C55.3451 12.7114 54.4398 12.326 53.4959 12.326C52.552 12.326 51.6468 12.7114 50.9793 13.3974C50.3119 14.0834 49.9369 15.0138 49.9369 15.9839V26.6758H46.6373V15.9839C46.6363 15.0605 46.8125 14.1458 47.1559 13.2925C47.4993 12.4391 48.0031 11.6637 48.6384 11.0107C49.2738 10.3577 50.0282 9.83987 50.8585 9.48694C51.6887 9.13401 52.5786 8.95287 53.4771 8.95389C54.4697 8.94391 55.4518 9.16209 56.3518 9.59249C57.2517 10.0229 58.0466 10.6546 58.6784 11.4414C59.3233 10.6703 60.1209 10.0495 61.0178 9.62057C61.9148 9.19159 62.8905 8.96431 63.8797 8.95389C65.692 8.96 67.4283 9.70263 68.7097 11.0197C69.9911 12.3368 70.7137 14.1213 70.7196 15.9839ZM81.7386 23.6243C80.6563 23.6243 79.5984 23.2944 78.6985 22.6764C77.7987 22.0585 77.0974 21.1801 76.6832 20.1525C76.2691 19.1248 76.1607 17.994 76.3718 16.903C76.583 15.8121 77.1041 14.81 77.8694 14.0234C78.6346 13.2369 79.6096 12.7013 80.6711 12.4843C81.7325 12.2673 82.8327 12.3786 83.8326 12.8043C84.8324 13.23 85.687 13.9508 86.2883 14.8757C86.8895 15.8006 87.2105 16.8879 87.2105 18.0002C87.2065 19.4906 86.6287 20.9187 85.6034 21.9725C84.5781 23.0264 83.1886 23.6202 81.7386 23.6243ZM81.7386 9.00024C80.0036 8.98493 78.3032 9.49973 76.8534 10.4793C75.4035 11.4589 74.2695 12.8591 73.5952 14.5022C72.9209 16.1453 72.7367 17.9573 73.0661 19.7082C73.3954 21.4591 74.2234 23.07 75.445 24.3364C76.6665 25.6028 78.2266 26.4676 79.9273 26.8212C81.6279 27.1748 83.3924 27.0012 84.9968 26.3223C86.6012 25.6434 87.9733 24.49 88.9388 23.0083C89.9044 21.5266 90.4199 19.7835 90.4199 18.0002C90.4161 15.6278 89.5026 13.3526 87.8775 11.6679C86.2524 9.98311 84.0467 9.02463 81.7386 9.00024ZM110.015 23.6243C108.933 23.6243 107.875 23.2944 106.975 22.6764C106.075 22.0585 105.374 21.1801 104.96 20.1525C104.546 19.1248 104.437 17.994 104.648 16.903C104.859 15.8121 105.381 14.81 106.146 14.0234C106.911 13.2369 107.886 12.7013 108.948 12.4843C110.009 12.2673 111.109 12.3786 112.109 12.8043C113.109 13.23 113.963 13.9508 114.565 14.8757C115.166 15.8006 115.487 16.8879 115.487 18.0002C115.483 19.4906 114.905 20.9187 113.88 21.9725C112.855 23.0264 111.465 23.6202 110.015 23.6243ZM110.015 9.00024C108.282 8.99412 106.586 9.51676 105.142 10.502C103.698 11.4872 102.571 12.8906 101.904 14.5346C101.236 16.1786 101.059 17.9892 101.393 19.737C101.728 21.4849 102.559 23.0914 103.783 24.3532C105.006 25.615 106.566 26.4752 108.266 26.825C109.965 27.1748 111.727 26.9983 113.329 26.3181C114.931 25.6378 116.3 24.4842 117.264 23.0035C118.227 21.5228 118.741 19.7816 118.741 18.0002C118.741 15.6133 117.819 13.3241 116.177 11.6363C114.535 9.94845 112.307 9.00024 109.985 9.00024M29.3046 26.4981C27.7111 21.1985 25.7043 18.0002 23.3742 18.0002C21.5026 18.0002 19.7288 20.1556 18.3082 23.9101C16.85 20.1633 15.1137 18.0002 13.1971 18.0002C10.9422 18.0002 8.86767 21.2371 7.26669 26.4981H6.07909L13.0543 4.46548L18.2556 20.9668L23.4569 4.46548L30.432 26.5444H29.2896L29.3046 26.4981ZM18.2631 0.000244141C14.7993 0.000244141 11.4134 1.05593 8.53335 3.03379C5.65334 5.01166 3.40865 7.82285 2.08312 11.1119C0.757601 14.401 0.410766 18.0202 1.08651 21.5119C1.76226 25.0035 3.43022 28.2108 5.87946 30.7282C8.32871 33.2455 11.4492 34.9598 14.8465 35.6544C18.2437 36.3489 21.7649 35.9924 24.965 34.63C28.1651 33.2677 30.9003 30.9606 32.8247 28.0005C34.749 25.0404 35.7762 21.5603 35.7762 18.0002C35.7742 13.227 33.9284 8.64979 30.6445 5.27458C27.3606 1.89937 22.9072 0.00229144 18.2631 0.000244141Z" fill="white"/>
</g>
<defs>
<clipPath id="clip0_10422_6514">
<rect width="172.5" height="36" fill="white" transform="translate(0.75 0.000244141)"/>
</clipPath>
</defs>
</svg>
