<svg width="179" height="180" viewBox="0 0 179 180" fill="none" xmlns="http://www.w3.org/2000/svg">
<path d="M0.212813 166.796L166.383 0.625564L166.254 48.8374L48.4247 166.667L0.212813 166.796Z" fill="black"/>
<path d="M50.6323 147.489L49.2266 148.895L42.297 141.965L46.9398 137.322C48.5534 135.708 50.4937 135.57 51.8005 136.877C53.127 138.203 52.9983 140.074 51.3748 141.698L48.108 144.964L50.6323 147.489ZM44.9302 141.787L46.8804 143.737L49.9592 140.658C50.8897 139.728 50.9887 138.916 50.3749 138.302C49.7612 137.688 48.9395 137.777 48.009 138.708L44.9302 141.787ZM59.1881 138.933L57.7823 140.339L50.8527 133.409L55.7034 128.558C57.1785 127.083 58.9703 126.895 60.079 128.004C60.9403 128.865 60.9997 130.053 60.475 130.994C61.2867 130.182 61.9599 130.222 62.6232 130.885L64.9298 133.191L63.524 134.597L61.6035 132.677C61.069 132.142 60.7027 132.192 60.1681 132.726L56.5746 136.32L59.1881 138.933ZM53.4859 133.231L55.347 135.092L58.604 131.835C59.3761 131.063 59.4553 130.231 58.8911 129.667C58.2971 129.073 57.515 129.202 56.7429 129.974L53.4859 133.231ZM65.1998 127.021L66.9223 128.744L72.8521 122.814L74.0796 124.042L66.7441 131.377L59.8144 124.447L67.051 117.211L68.2785 118.438L62.4477 124.269L63.9722 125.794L69.209 120.557L70.4366 121.784L65.1998 127.021ZM78.9971 116.313L76.1262 108.136L78.3536 105.908L85.2833 112.838L83.8775 114.244L78.3338 108.7L81.2146 116.907L79.5614 118.56L71.4537 115.738L76.9182 121.203L75.5125 122.609L68.5828 115.679L70.8102 113.452L78.9971 116.313ZM88.5482 109.573L87.1424 110.979L80.2128 104.049L81.6185 102.643L88.5482 109.573ZM94.0828 104.236C91.6178 106.701 89.133 106.652 87.1729 104.692L83.3715 100.89L84.7772 99.4846L88.4797 103.187C89.8953 104.603 91.3406 104.523 92.7562 103.108L92.9542 102.91C94.36 101.504 94.449 100.049 93.0334 98.6333L89.331 94.9309L90.7367 93.5251L94.5381 97.3265C96.4982 99.2866 96.4685 101.851 94.0828 104.236ZM102.905 92.4049L100.034 84.228L102.261 82.0006L109.191 88.9302L107.785 90.3359L102.241 84.7922L105.122 92.9989L103.469 94.6521L95.3613 91.8308L100.826 97.2953L99.4201 98.701L92.4905 91.7714L94.7179 89.544L102.905 92.4049ZM118.177 80.1424C115.336 82.9836 112.128 83.1816 110.069 81.1225C108.01 79.0634 108.208 75.8559 111.049 73.0148C113.89 70.1736 116.355 70.6587 117.414 71.4012L115.831 72.9851C115.197 72.6089 113.851 72.6683 112.376 74.1433L112.178 74.3413C110.317 76.2024 110.148 78.3506 111.495 79.6969C112.841 81.0433 114.989 80.875 116.85 79.0139L117.048 78.8159C118.523 77.3409 118.543 76.0143 118.206 75.361L119.79 73.777C120.533 74.8363 121.018 77.3013 118.177 80.1424ZM131.586 66.5353L129.982 68.139L127.487 67.3867L123.102 71.7722L123.854 74.2668L122.3 75.821L119.132 65.1296L120.894 63.3675L131.586 66.5353ZM121.181 65.4563L122.528 69.8912L125.607 66.8125L121.181 65.4563ZM135.753 62.5659C133.051 65.2685 130.972 65.4863 129.437 64.0311L130.952 62.5164C131.625 63.0708 132.764 63.1005 134.417 61.4473L134.615 61.2493C136.258 59.606 136.248 58.8041 135.842 58.3982C135.476 58.032 134.981 57.9726 133.902 58.814L132.001 60.2989C129.744 62.0413 128.457 62.1997 127.17 60.9127C126.121 59.8634 126.141 57.9231 128.596 55.468C131.041 53.0228 133.209 52.6565 134.704 53.9138L133.13 55.4878C132.437 55.0126 131.249 55.27 129.913 56.6064L129.715 56.8044C128.368 58.1508 128.17 59.0417 128.635 59.507C128.992 59.8634 129.467 59.8436 130.704 58.8635L132.546 57.4182C134.555 55.8442 136.03 55.6363 137.199 56.8044C138.555 58.1607 138.228 60.0911 135.753 62.5659ZM139.282 52.9394L141.004 54.662L146.934 48.7322L148.161 49.9597L140.826 57.2952L133.896 50.3656L141.133 43.129L142.36 44.3566L136.53 50.1874L138.054 51.7119L143.291 46.4751L144.518 47.7026L139.282 52.9394Z" fill="white"/>
</svg>
