<svg width="183" height="28" viewBox="0 0 183 28" fill="none" xmlns="http://www.w3.org/2000/svg">
<g clip-path="url(#clip0_10422_6507)">
<path d="M12.3511 19.622C12.5961 20.2345 12.5348 21.0307 12.4123 21.582C12.1673 22.4395 11.616 23.3583 9.90101 23.3583C8.24722 23.3583 7.2672 22.4395 7.2672 20.9695V18.4582H0.284546V20.4795C0.284546 26.2984 4.8784 28.0746 9.77851 28.0746C14.4949 28.0746 18.3537 26.4821 18.9662 22.1333C19.2725 19.867 19.0275 18.3969 18.9662 17.8457C17.8024 12.2718 7.94097 10.6793 7.1447 7.61668C7.0222 7.18792 7.0222 6.69792 7.1447 6.26916C7.32845 5.41164 7.87971 4.49287 9.5335 4.49287C11.0648 4.49287 11.9836 5.41164 11.9836 6.88167V8.4742H18.4762V6.63666C18.4762 0.940286 13.3923 0.0827637 9.656 0.0827637C5.0009 0.0827637 1.20332 1.61405 0.529551 5.90164C0.345797 7.06542 0.284546 8.1067 0.590803 9.39297C1.75458 14.6606 11.0035 16.2531 12.3511 19.622Z" fill="white"/>
<path d="M28.1537 0.87915L23.3149 26.9722H30.3588L33.9114 3.26796H34.0339L37.5252 26.9722H44.5079L39.7915 0.87915H28.1537ZM67.5996 0.87915L64.4146 20.8471H64.292L60.9845 0.87915H50.388L49.7755 26.9722H56.3294L56.5131 3.51296H56.6356L60.9845 26.9722H67.5996L71.9485 3.51296H72.071L72.2547 26.9722H78.8086L78.1961 0.87915H67.5996Z" fill="white"/>
<path d="M97.184 19.5607C97.429 20.1732 97.3678 20.9695 97.2453 21.5207C97.0003 22.3783 96.449 23.297 94.6727 23.297C93.019 23.297 92.0389 22.3783 92.0389 20.9082V18.3969H85.0563V20.4182C85.0563 26.2371 89.6501 28.0134 94.5502 28.0134C99.2666 28.0134 103.125 26.4209 103.799 22.072C104.105 19.8057 103.86 18.3357 103.799 17.7844C102.697 12.333 92.7739 10.6793 92.0389 7.61668C91.9164 7.18792 91.9164 6.69792 92.0389 6.26916C92.2227 5.41164 92.7739 4.49287 94.4277 4.49287C95.959 4.49287 96.8165 5.41164 96.8165 6.88167V8.4742H103.309V6.63666C103.309 0.940286 98.2253 0.0827637 94.489 0.0827637C89.8339 0.0827637 86.0363 1.61405 85.3625 5.90164C85.1788 7.06542 85.1788 8.1067 85.4238 9.39297C86.5263 14.6606 95.8365 16.1919 97.184 19.5607Z" fill="white"/>
<path d="M119.051 23.0521C120.888 23.0521 121.44 21.8271 121.562 21.1533C121.623 20.847 121.623 20.4795 121.623 20.1733V0.879086H128.238V19.5608C128.238 20.112 128.238 20.7245 128.177 21.2758C127.687 26.1759 123.89 27.7072 119.051 27.7072C114.273 27.7072 110.414 26.1147 109.924 21.2758C109.924 21.0308 109.863 20.0508 109.863 19.5608V0.879086H116.478V20.1733C116.478 20.5408 116.478 20.9083 116.539 21.1533C116.662 21.8271 117.274 23.0521 119.051 23.0521ZM150.963 0.879086L151.33 21.337H151.208L145.205 0.879086H135.527V26.6659H141.959L141.591 5.47294H141.714L148.145 26.6659H157.455V0.879086H150.963ZM173.503 22.8071C175.402 22.8071 176.076 21.5821 176.198 20.9083C176.26 20.602 176.26 20.2345 176.26 19.9283V16.1307H173.503V12.3331H182.752V19.3157C182.752 19.8058 182.752 20.1733 182.691 21.0308C182.262 25.8084 178.158 27.4622 173.503 27.4622C168.848 27.4622 164.744 25.7471 164.316 21.0308C164.254 20.1733 164.254 19.8058 164.254 19.3157V8.35175C164.254 7.86174 164.316 7.06548 164.377 6.63672C164.989 1.73661 168.909 0.205322 173.503 0.205322C178.097 0.205322 182.201 1.73661 182.691 6.63672C182.752 7.49424 182.752 8.35175 182.752 8.35175V9.20927H176.198V7.73924C176.198 7.73924 176.198 7.12673 176.137 6.75922C176.015 6.20795 175.525 4.86043 173.503 4.86043C171.604 4.86043 171.053 6.1467 170.931 6.75922C170.869 7.12673 170.808 7.55549 170.808 7.98424V19.9283C170.808 20.2345 170.808 20.602 170.869 20.9083C170.931 21.5821 171.604 22.8071 173.503 22.8071Z" fill="white"/>
</g>
<defs>
<clipPath id="clip0_10422_6507">
<rect width="182.529" height="28" fill="white" transform="translate(0.235352)"/>
</clipPath>
</defs>
</svg>
