<svg width="158" height="40" viewBox="0 0 158 40" fill="none" xmlns="http://www.w3.org/2000/svg">
<g clip-path="url(#clip0_10422_6517)">
<path d="M40.7038 15.8811C40.449 10.5202 39.1963 6.94268 36.6273 4.20382C33.8885 1.6242 30.311 0.382166 24.9501 0.127389C23.432 0.0530786 22.2112 0.0106157 20.8206 0C19.4299 0.0106157 18.2091 0.0530786 16.691 0.127389C11.3301 0.382166 7.75261 1.63482 5.01376 4.20382C2.43414 6.94268 1.1921 10.5202 0.937325 15.8811C0.863015 17.3885 0.820552 18.62 0.809937 20.0106C0.820552 21.4013 0.863015 22.6221 0.937325 24.1401C1.1921 29.5011 2.44476 33.0786 5.01376 35.8174C7.75261 38.397 11.3301 39.6391 16.691 39.8938C18.1985 39.9682 19.4299 40.0106 20.8206 40.0212C22.2112 40.0106 23.432 39.9682 24.9501 39.8938C30.311 39.6391 33.8885 38.3864 36.6273 35.8174C39.207 33.0786 40.449 29.5011 40.7038 24.1401C40.7781 22.6327 40.8206 21.4013 40.8312 20.0106C40.8206 18.6093 40.7781 17.3885 40.7038 15.8811ZM19.3344 27.7389H15.4172V18.2696H19.3344V27.7389ZM26.0859 27.7389H22.1687V17.983C22.1687 16.6136 21.0647 15.5096 19.6953 15.5096H12.5828V27.7495H8.66556V12.293H21.2876C23.9416 12.293 26.0859 14.4374 26.0859 17.0913V27.7389ZM32.88 27.7389H28.9628V12.293H32.88V27.7389Z" fill="white"/>
<path d="M146.808 14.416C145.916 13.5774 144.738 13.1634 142.954 13.0679C142.456 13.0466 142.052 13.0254 141.585 13.0254C141.129 13.0254 140.715 13.036 140.216 13.0572C138.719 13.1209 137.647 13.4182 136.808 14.002C136.723 14.0551 136.617 14.0551 136.543 14.002C135.693 13.4182 134.621 13.1209 133.135 13.0572C132.636 13.036 132.222 13.0254 131.765 13.0254C131.309 13.0254 130.895 13.0466 130.396 13.0679C128.623 13.1634 127.445 13.5774 126.543 14.416C125.704 15.3078 125.311 16.4649 125.247 18.2059C125.226 18.6942 125.216 19.087 125.226 19.5328V28.5137C125.226 28.5774 125.279 28.6305 125.343 28.6305H128.825C128.889 28.6305 128.942 28.5774 128.942 28.5137V18.7154C128.942 18.5243 128.942 18.3545 128.952 18.1422C128.984 17.3884 129.154 16.8895 129.536 16.4967C129.94 16.1252 130.47 15.9553 131.256 15.9129C131.479 15.9022 131.659 15.8916 131.872 15.8916C132.073 15.8916 132.264 15.9022 132.487 15.9022C133.284 15.9341 133.814 16.1146 134.228 16.4755C134.61 16.8577 134.791 17.3672 134.833 18.1209C134.844 18.3332 134.855 18.5031 134.855 18.7048V28.5137C134.855 28.5774 134.908 28.6305 134.971 28.6305H138.39C138.453 28.6305 138.506 28.5774 138.506 28.5137V18.7048C138.506 18.5137 138.517 18.3332 138.528 18.1209C138.56 17.3672 138.751 16.8577 139.133 16.4755C139.536 16.1146 140.078 15.9341 140.874 15.9022C141.097 15.8916 141.277 15.8916 141.489 15.8916C141.691 15.8916 141.882 15.9022 142.105 15.9129C142.901 15.9553 143.432 16.1358 143.825 16.4967C144.196 16.8895 144.377 17.3884 144.409 18.1422C144.419 18.3545 144.419 18.5243 144.419 18.7154V28.5137C144.419 28.5774 144.472 28.6305 144.536 28.6305H148.018C148.082 28.6305 148.135 28.5774 148.135 28.5137V19.5328C148.135 19.087 148.124 18.6942 148.114 18.2059C148.05 16.4649 147.647 15.3078 146.808 14.416Z" fill="white"/>
<path d="M118.952 14.6814C117.859 13.6517 116.426 13.1634 114.281 13.0679C113.676 13.0466 113.188 13.0254 112.636 13.0254C112.084 13.0254 111.596 13.0466 110.99 13.0785C108.857 13.1952 107.434 13.6942 106.351 14.7345C105.343 15.8279 104.865 17.2504 104.791 19.3736C104.77 19.9681 104.759 20.4564 104.759 20.9978C104.77 21.5498 104.791 22.0275 104.833 22.622C104.961 24.7239 105.47 26.1146 106.489 27.1761C107.572 28.174 108.984 28.6623 111.086 28.7579C111.68 28.7897 112.158 28.8003 112.71 28.811C113.252 28.811 113.74 28.7897 114.334 28.7579C116.447 28.6623 117.859 28.174 118.942 27.1655C119.961 26.0933 120.46 24.6921 120.576 22.5795C120.608 21.9851 120.63 21.4967 120.63 20.9553C120.63 20.4033 120.608 19.9256 120.587 19.3205C120.481 17.1974 119.982 15.7642 118.952 14.6814ZM117.158 21.9851C117.094 23.3332 116.808 24.225 116.235 24.9044C115.619 25.5413 114.823 25.8492 113.623 25.9129C113.283 25.9341 113.007 25.9447 112.7 25.9447C112.392 25.9447 112.116 25.9341 111.776 25.9129C110.576 25.8492 109.78 25.5413 109.165 24.9044C108.581 24.225 108.294 23.3332 108.22 21.9957C108.199 21.6135 108.188 21.3163 108.177 20.9659C108.177 20.6156 108.177 20.3078 108.199 19.9256C108.241 18.5774 108.517 17.6645 109.09 16.9744C109.706 16.3163 110.513 15.9978 111.723 15.9235C112.063 15.9022 112.339 15.8916 112.657 15.8916C112.976 15.8916 113.252 15.9022 113.591 15.9235C114.812 15.9872 115.619 16.295 116.245 16.9532C116.829 17.6432 117.116 18.5562 117.169 19.915C117.179 20.2972 117.19 20.605 117.19 20.9553C117.19 21.295 117.179 21.6029 117.158 21.9851Z" fill="white"/>
<path d="M72.4448 13.1528H68.103C68.0287 13.1528 67.965 13.1847 67.9225 13.2378L63.8886 18.2696C63.8355 18.3333 63.7506 18.3333 63.6975 18.2696L59.8758 13.2378C59.8334 13.1847 59.759 13.1528 59.6954 13.1528H55.3535C55.2474 13.1528 55.1943 13.2696 55.258 13.3545L61.3726 20.7325C61.4045 20.7749 61.4045 20.8386 61.3726 20.8811L55.3748 28.3439C55.3111 28.4182 55.3641 28.5456 55.4703 28.5456H59.8121C59.8864 28.5456 59.9501 28.5138 59.9926 28.4607L63.8143 23.5562C63.8673 23.4925 63.9523 23.4925 64.0053 23.5562L67.827 28.4607C67.8695 28.5138 67.9438 28.5456 68.0075 28.5456H72.3493C72.4554 28.5456 72.5085 28.4288 72.4448 28.3439L66.4257 20.8811C66.3939 20.8386 66.3939 20.7749 66.4257 20.7325L72.5404 13.3545C72.6041 13.2696 72.551 13.1528 72.4448 13.1528Z" fill="white"/>
<path d="M80.3854 13.1528H77.0096C76.9459 13.1528 76.8928 13.2059 76.8928 13.2696V28.4182C76.8928 28.4819 76.9459 28.535 77.0096 28.535H80.3854C80.4491 28.535 80.5022 28.4819 80.5022 28.4182V13.2696C80.5128 13.2059 80.4491 13.1528 80.3854 13.1528Z" fill="white"/>
<path d="M157.063 13.1528H153.687C153.623 13.1528 153.57 13.2059 153.57 13.2696V28.4182C153.57 28.4819 153.623 28.535 153.687 28.535H157.063C157.126 28.535 157.179 28.4819 157.179 28.4182V13.2696C157.179 13.2059 157.126 13.1528 157.063 13.1528Z" fill="white"/>
<path d="M93.7611 12.5902C93.7611 12.5902 89.7802 12.3036 86.8397 13.5668C86.7547 13.6093 86.6911 13.6942 86.6911 13.7898V16.8365C86.6911 16.9214 86.776 16.9745 86.8503 16.9532C89.9501 15.7643 93.294 15.9023 93.294 15.9023C95.725 15.9023 96.6911 16.3906 96.8715 18.5668C96.8821 18.6411 96.8184 18.7048 96.7441 18.6942C96.086 18.6411 93.4957 18.4607 90.7781 18.6199C88.0817 18.7791 85.2473 20.2653 85.2473 23.4819C85.2473 26.9957 88.0817 28.8004 90.7781 28.8004H94.8864C97.8269 28.8004 100.332 26.9108 100.651 23.6411C100.746 22.6539 100.629 19.501 100.629 19.501C100.661 15.191 97.7739 12.5902 93.7611 12.5902ZM96.9352 23.5987C96.9352 24.9044 96.1072 25.8174 94.5998 25.8174H91.0223C90.6507 25.8174 88.8036 25.7218 88.8036 23.811C88.8036 21.6666 90.5764 21.6029 91.0223 21.5605C93.2303 21.3481 96.224 21.5817 96.8291 21.6348C96.8928 21.6348 96.9352 21.6878 96.9352 21.7515V23.5987Z" fill="white"/>
</g>
<defs>
<clipPath id="clip0_10422_6517">
<rect width="156.359" height="40" fill="white" transform="translate(0.820557)"/>
</clipPath>
</defs>
</svg>
