<?xml version="1.0" encoding="utf-8"?>
<!-- Generator: Adobe Illustrator 25.0.0, SVG Export Plug-In . SVG Version: 6.00 Build 0)  -->
<svg version="1.1" id="Layer_1" xmlns="http://www.w3.org/2000/svg" xmlns:xlink="http://www.w3.org/1999/xlink" x="0px" y="0px"
	 viewBox="0 0 498.7 493.2" style="enable-background:new 0 0 498.7 493.2;" xml:space="preserve">
<style type="text/css">
	.st0{fill:#FFFFFF;}
</style>
<g>
	<path d="M208.6,367.8c-5.4-4.2-10.7-8.3-16.1-12.5c-1.1,3.2-1.4,22.3-0.8,44.1c0.1,0.1,0.2,0.3,0.3,0.4c0.1,0.1,0.3,0.2,0.4,0.2
		c12.8,0,25.6,0,38.4,0c1.8,6,3.6,11.6,5.3,17.2c-0.1,0.2-0.2,0.3-0.3,0.4c-0.1,0.1-0.3,0.2-0.4,0.2c-78,0-156,0-234-0.1
		c-0.3,0-0.6-0.3-0.9-0.4c-0.1-0.1-0.3-0.2-0.4-0.3C0.1,417,0,416.8,0,416.7C0,305.6,0,194.5,0,83.4c0.1-0.1,0.2-0.3,0.3-0.4
		c0.1-0.1,0.3-0.2,0.4-0.2c63,0,126.1-0.1,189.1-0.1c0.5,0,0.9,0.2,1.7,0.4c0,20.4,0,40.8,0,61.9c6.5-3.6,11-8.7,17-12.5
		c5.5,3.9,10.8,8.4,16.5,12.9c5.5-4.3,11-8.6,16.8-13.1c5.3,4.2,10.5,8.2,15.5,12.2c0.4-0.1,0.6-0.1,0.6-0.2
		c0.1-0.1,0.2-0.3,0.2-0.4c0.1-20.1,0.1-40.2,0.2-60.4c0-0.1,0.2-0.3,0.4-0.6c63.4,0,127.1,0,190.9,0c0,53.7,0,107.4,0,161.4
		c-46.3-27.4-94.4-31.7-142.7-7.5c-48.4,24.2-74.2,65.1-80.3,118.9c-0.5-0.1-1.2-0.3-2.2-0.6C219.6,359.2,214.3,363.4,208.6,367.8z
		 M224.9,233.6C224.9,233.6,224.9,233.6,224.9,233.6c15.1,0,30.3,0,45.4,0c13.3,0,28.6-12.9,23.2-32.4c-2.6-9.3-12.3-17.5-24-17.5
		c-29.4,0-58.9,0-88.3,0.1c-2.4,0-5,0.3-7.3,1c-10.5,3.3-17.7,11.3-18.2,22.9c-0.6,15.6,11.8,26.1,24.8,26
		C195.3,233.5,210.1,233.6,224.9,233.6z"/>
	<path d="M244.1,365.5c0.3-34.9,12.6-64.9,37.2-89.6c24.8-24.8,55-37.3,90.1-37.3c70.7-0.1,127.4,57,127.3,127.6
		c-0.2,71-57.7,127.2-127.9,127.1C301.6,493.1,243.1,435.6,244.1,365.5z M346.4,386.3c-0.6-0.4-1-0.5-1.4-0.9
		c-6.1-5.7-12.1-11.4-18.2-17c-4.1-3.9-8.2-7.8-12.4-11.5c-5.3-4.5-11.3-5.9-18-3.6c-6.8,2.4-12.1,9.6-11.8,16.8
		c0.2,4.7,1.8,9.1,5.4,12.4c5.1,4.7,10.2,9.5,15.3,14.3c8.9,8.4,17.8,16.9,26.8,25.4c1.1,1,2.3,1.9,3.4,2.9
		c7.6,6.6,17.9,4.3,23.5-1.1c3.8-3.7,7.8-7.3,11.6-10.9c11.5-11.1,22.9-22.2,34.4-33.3c8.6-8.4,17.1-16.8,25.6-25.2
		c7.5-7.3,15.2-14.4,22.5-21.9c5.9-6.1,7-14.7,1.7-22.8c-3.4-5.2-12.4-9.6-20.8-6.2c-3.2,1.3-5.7,3.3-8.1,5.6
		c-11.8,11.4-23.6,22.9-35.4,34.4c-14.1,13.7-28.1,27.3-42.2,41C347.6,385.3,347,385.8,346.4,386.3z"/>
	<path d="M11.4,65.5C26.2,43.4,40.7,21.7,55.1,0C168.4,0,281.4,0,395,0c14.5,21.6,29.1,43.5,43.9,65.5c-60.8,0-121.2,0-182.2,0
		c-1.6-16.1-3.2-32-4.7-47.9c-3.6-0.9-41.8-1.2-53.4-0.4c-2.3,15.9-3,32-5.2,48.3C132.8,65.5,72.4,65.5,11.4,65.5z"/>
</g>
</svg>
