<?xml version="1.0" encoding="utf-8"?>
<!-- Generator: Adobe Illustrator 25.0.0, SVG Export Plug-In . SVG Version: 6.00 Build 0)  -->
<svg version="1.1" id="Layer_1" xmlns="http://www.w3.org/2000/svg" xmlns:xlink="http://www.w3.org/1999/xlink" x="0px" y="0px"
	 viewBox="0 0 471.7 465.4" style="enable-background:new 0 0 471.7 465.4;" xml:space="preserve">
<style type="text/css">
	.st0{fill:#FFFFFF;}
</style>
<g>
	<path d="M324.9,75.9c-5.3,18.5-4.2,36.3,2.9,54.1c-5.9,11.9-11.9,23.8-18,36c-8.1,3.4-12,10.9-16.3,17.9
		c-12.2,19.7-23.3,40-33.4,60.9c-2,4.2-3.9,8.4-5.9,12.6c-10.2,1.2-19.9,3.6-28.9,8.3c-12.6,6.4-22.4,15.8-29.5,28
		c-6,10.4-9.4,21.7-11.2,33.6c-1.1,7.3-0.8,14.6-0.9,21.8c-0.1,6-1,11.8-2.8,17.5c-4.1,12.5-11.9,22-23.1,28.7
		c-9.1,5.5-19,8.3-29.8,7.9c-6.7-0.2-13.1-1.7-19.1-4.5c-12.3-5.8-23.7-13.2-34.4-21.6c-7.9-6.1-15.3-12.8-22-20.2
		c-10.2-11.1-19.2-23.2-26.7-36.4C15.8,303.6,8.8,285.3,4.5,266c-1.7-7.4-2.2-15-3.5-22.5c-1.4-8.9-1-17.9-0.9-26.8
		c0.1-16,2.9-31.5,7.1-46.9c3.2-11.8,7.6-23.2,13.1-34.1c8.5-16.6,19-31.8,31.7-45.5c18.2-19.6,39.4-34.9,63.6-45.9
		c13.1-5.9,26.7-10.3,40.9-13.1c7.8-1.5,15.6-2.5,23.5-3.3c7.6-0.7,15.2-0.8,22.9-0.6c8.2,0.2,16.4,1.3,24.6,2.6
		c12.1,1.8,23.8,5.1,35.3,9.3c16.1,5.9,31.2,13.7,45,23.8C313.5,67,319,71.3,324.9,75.9z M240.5,169.8c16.6-0.1,32.2-13.7,31.9-32.5
		c-0.3-18.1-13.3-32.1-32.2-32.1c-18.4,0-32,13.5-32.2,32.1C208,155.4,221.7,169.5,240.5,169.8z M127.3,122.8
		c-16.9-0.5-31.8,13.3-32.1,31.6c-0.2,19.6,16,32.9,32.6,32.6c17-0.3,31.7-13.7,31.8-32C159.7,136.2,144.6,122.1,127.3,122.8z
		 M142,264.9c1-17.9-15.3-32.4-31.8-32.4c-17.9,0.1-32.2,15-32.3,32c-0.1,18.8,16,32.1,32,32.4C127,297.2,143.1,281.6,142,264.9z"/>
	<path d="M324,181.8c5.2-10.5,10.3-20.7,15.4-31.1c4.9,4.5,9.6,8.8,14.4,13c4.8,4.1,10.3,7.2,16.1,9.7c5.9,2.6,12,4.7,18.4,5.7
		c6.2,0.9,12.4,1.4,18.9,2.2c-4.3,10.5-8.7,21.2-13.1,32c3.3,4.5,2.6,9.2,1.1,14.2c-6.3,21.2-13.6,42-22,62.5
		c-7.1,17.3-14.6,34.4-23.5,50.8c-13.8,25.7-29.3,50.4-47.2,73.4c-9.2,11.8-18.9,23.2-29.8,33.4c-6.4,6-13.2,11.7-21.3,15.4
		c-2.5,1.1-5.3,1.8-8,2.3c-4.7,0.7-8-1.8-10.4-5.5c-1.1-1.6-1.8-3.6-2.3-5.5c-1.3-4.8-2.2-9.7-2.1-14.7c0.1-5-0.3-10,0.1-15
		c0.7-8.7,1.8-17.4,2.9-26.1c1.5-12,4-23.7,6.7-35.4c5.3-23,12.2-45.5,20.8-67.5c3.3-8.4,6.8-16.9,10.6-25.1
		c5.4-11.5,11-23,16.7-34.3c8.3-16.4,17.6-32.2,27.3-47.8C316.1,184.8,319.2,182.3,324,181.8z"/>
	<path d="M471.7,61.4c-0.2,18.7-3.1,36.8-8.5,54.7c-3.1,10.2-8.2,19.2-15.7,26.7c-8.9,8.8-19.5,14.6-31.9,17.1
		c-14.6,2.9-28.7,1-41.8-6.2c-17.2-9.5-27.8-24-31.6-43.4c-2.2-11.3-1-22.3,2.9-33.1c2.1-5.9,5.7-10.8,9.5-15.6
		c7.8-10,18.3-16,30.5-19.4c5.9-1.6,11.7-3.4,17.4-5.6c10.8-4.3,19-12,25.6-21.3c2.4-3.4,4.6-6.9,6.9-10.3c3.4-4.9,8.9-6.3,13.9-3.2
		c2.7,1.6,5.3,3.4,7.5,5.6c3.6,3.4,6.3,7.7,8.2,12.4c2.9,7,4.9,14.3,5.5,22C470.8,48.2,471.3,54.8,471.7,61.4z"/>
</g>
</svg>
