<?xml version="1.0" encoding="utf-8"?>
<!-- Generator: Adobe Illustrator 25.0.0, SVG Export Plug-In . SVG Version: 6.00 Build 0)  -->
<svg version="1.1" id="Layer_1" xmlns="http://www.w3.org/2000/svg" xmlns:xlink="http://www.w3.org/1999/xlink" x="0px" y="0px"
	 viewBox="0 0 554.5 511" style="enable-background:new 0 0 554.5 511;" xml:space="preserve">
<style type="text/css">
	.st0{fill:#FFFFFF;}
</style>
<g>
	<g>
		<path d="M402,38c0-3.4-0.3-6.9-1-10.3c-1.4-8-5.7-14.4-11.8-19.5C382.3,2.4,374.2,0,365.3,0c-58.7,0-117.4,0-176.1,0.1
			c-2.8,0-5.6,0.4-8.3,0.9c-11.1,1.9-18.9,8.3-24.3,17.9c-3.3,5.9-4.1,12.4-4.1,19.2c0,145,0,290,0,435c0,1-0.1,2,0,3
			c0.4,3.3,0.4,6.7,1.5,9.7c4.5,13.2,13.2,21.9,27.3,24.4c0.4,0.1,0.7,0.5,1.1,0.8c63.2,0,126.4,0,189.6,0c0.5-0.3,1-0.8,1.6-0.9
			c8.6-1.5,15.3-5.9,20.7-12.6c5.7-7.2,7.7-15.4,7.7-24.5C402,328,402,183,402,38z M182.9,106.2V53.8c0-13.8,11.2-25,25-25h52.4
			c13.8,0,25,11.2,25,25v52.4c0,13.8-11.2,25-25,25h-52.4C194.1,131.2,182.9,120,182.9,106.2z M277.2,314.6c-31.9,0-59-26.9-59-59.1
			c0.1-32.4,27.3-59,59.1-59c32.4,0,59.4,27.3,58.9,59.1C336.7,287.6,309.3,314.6,277.2,314.6z"/>
	</g>
	<path d="M126.8,212.4c0-29.2,0-57.7,0-86.4c5.5,0,10.8,0,16.1,0c0.8,3.5,1.2,76.3,0.3,85.6c-2.5,1.6-5.4,0.6-8.1,0.8
		C132.4,212.6,129.8,212.4,126.8,212.4z"/>
	<path d="M411.4,176c5.5-0.3,10.7-0.1,16.5-0.1c0.2,16.6,0.1,32.9,0.1,49.4c-5.7,0-11,0-16.2,0C410.9,221.8,410.6,184.8,411.4,176z"
		/>
	<path d="M411.3,112.8c2.1,0,3.9,0,5.7,0c3.5,0,6.9,0,10.7,0c0,16.3,0,32.3,0,48.7c-5.3,0-10.7,0-16.1,0
		C410.9,157.6,410.6,123.5,411.3,112.8z"/>
	<g>
		<path d="M82.3,202.2c-0.6-0.6-1.3-1.3-1.8-1.9c-1.4-1.5-2.7-2.8-4.3-4.2c-0.4-0.3-0.8-0.9-1.3-1.4c-1.5-1.7-3.6-4.1-7.2-4.9
			l-2.4-0.5l-1.9,1.6c-6.7,5.6-58.8,57.8-61.3,62L0,256.2l17.7,17.7l0.2-0.2l49.7,49.7l3.5-3.5c0.6-0.6,1.3-1.3,1.9-1.8
			c1.5-1.4,2.8-2.7,4.2-4.3c0.3-0.4,0.9-0.8,1.4-1.3c1.7-1.5,4.1-3.6,4.9-7.2l0.5-2.4l-1.6-1.9c-4.4-5.2-29.3-30.1-45.7-46.2
			l49.1-49.1L82.3,202.2z"/>
		<path d="M552.4,252.8c-2.6-4.2-54.7-56.4-61.3-62l-1.9-1.6l-2.4,0.5c-3.6,0.8-5.7,3.2-7.2,4.9c-0.5,0.5-0.9,1.1-1.3,1.4
			c-1.5,1.3-2.9,2.7-4.3,4.2c-0.6,0.6-1.2,1.2-1.8,1.9l-3.5,3.5l49.1,49.1c-16.5,16-41.4,41-45.7,46.2l-1.6,1.9l0.5,2.4
			c0.8,3.6,3.2,5.7,4.9,7.2c0.5,0.5,1.1,0.9,1.4,1.3c1.3,1.5,2.7,2.9,4.2,4.3c0.6,0.6,1.2,1.2,1.9,1.8l3.5,3.5l49.7-49.7l0.2,0.2
			l17.7-17.7L552.4,252.8z"/>
	</g>
</g>
</svg>
