<?xml version="1.0" encoding="utf-8"?>
<!-- Generator: Adobe Illustrator 25.0.0, SVG Export Plug-In . SVG Version: 6.00 Build 0)  -->
<svg version="1.1" id="Layer_1" xmlns="http://www.w3.org/2000/svg" xmlns:xlink="http://www.w3.org/1999/xlink" x="0px" y="0px"
	 viewBox="0 0 511 511" style="enable-background:new 0 0 511 511;" xml:space="preserve">
<style type="text/css">
	.st0{fill:#FFFFFF;}
</style>
<g>
	<g>
		<path d="M223.5,447.1c18.3,0.2,31.9,14.4,32,31.7c0.1,18-14,32.2-32.1,32.1c-17.8-0.1-31.7-14.5-31.7-32
			C191.6,461.5,206.1,447.1,223.5,447.1z"/>
		<path d="M362.2,478.9c-0.8-15.6,12.9-31.9,31.7-31.8c17.2,0.1,31.8,13,31.9,31.8c0.1,18.7-14.5,32-32.2,32
			C375,511,361.3,494.8,362.2,478.9z"/>
		<path d="M234.3,138c0.3-37.9,13.7-70.6,40.5-97.4c27-27,59.8-40.5,97.9-40.6C449.6-0.1,511.2,61.9,511,138.7
			c-0.2,77.1-62.7,138.3-139,138.1C296.8,276.6,233.2,214.2,234.3,138z M345.5,160.6c-0.6-0.4-1.1-0.6-1.5-0.9
			c-6.6-6.2-13.2-12.3-19.8-18.5c-4.5-4.2-8.9-8.5-13.5-12.5c-5.7-4.9-12.3-6.5-19.6-3.9c-7.4,2.6-13.1,10.4-12.9,18.2
			c0.2,5.1,1.9,9.8,5.9,13.5c5.6,5.1,11.1,10.3,16.6,15.5c9.7,9.2,19.4,18.4,29.1,27.6c1.2,1.1,2.5,2,3.7,3.1
			c8.2,7.2,19.5,4.7,25.5-1.1c4.1-4,8.4-7.9,12.6-11.9c12.5-12,24.9-24.1,37.3-36.2c9.3-9.1,18.5-18.3,27.8-27.3
			c8.1-7.9,16.6-15.6,24.5-23.8c6.4-6.6,7.6-16,1.9-24.8c-3.7-5.7-13.5-10.5-22.6-6.7c-3.4,1.4-6.2,3.6-8.8,6.1
			c-12.9,12.4-25.7,24.9-38.5,37.3c-15.3,14.9-30.6,29.7-45.8,44.6C346.8,159.5,346.2,160,345.5,160.6z"/>
	</g>
	<path d="M132.4,362.2c1.7,0,3.3,0,5,0c103.5,0,206.9,0,310.4,0c1.3,0,2.7,0.1,4,0c9-0.8,14.9-5.6,16.5-13.8
		c1.4-7.4,3.2-14.8,4.8-22.2c2-9.2,11.4-59.1,15.6-81.2c-28.8,31.3-70.1,50.9-116,50.9c-87,0-157.6-70.6-157.6-157.6
		c0-3.6,0.1-7.1,0.4-10.6c-23.8,0-63.8,0-79.1,0c-0.2,0-0.3-0.1-0.5-0.2c-0.1-0.1-0.2-0.2-0.7-0.6c-0.2-1.2-0.4-2.9-0.8-4.5
		c-2.2-10-4.7-19.9-6.5-29.9c-2.9-15.9-10.6-28.7-23.5-38.3C95.3,47.3,84.9,43.3,73.6,43c-19.3-0.4-38.6-0.2-57.9-0.3
		c-4.5,0-8.2,1.6-11,4.8c-1.9,2.2-3.2,4.9-4.7,7.3c0,2.7,0,5.3,0,8c0.7,1.1,1.4,2.1,2,3.2c1.2,2.3,2.8,4,4.9,5.5
		c3.4,2.4,7.2,3.1,11.3,3.2c17.5,0.1,34.9,0,52.4,0.1c9.1,0.1,16.2,4.2,21.4,11.5c2.7,3.9,4,8.3,4.9,12.8
		c2.2,10.7,4.5,21.3,6.7,31.9c2.1,9.8,4.2,19.7,6.2,29.5c2.5,11.9,4.9,23.9,7.4,35.8c2.5,11.6,5.1,23.2,7.5,34.8
		c3.5,16.8,6.8,33.6,10.3,50.3c3.1,14.7,6.4,29.3,9.6,43.9c0.3,1.4,0.2,2.9,0.3,4.8c-4.4,0-8.5,0-12.7,0c-9.7,0-18.5,2.9-26.4,8.5
		c-16,11.4-23.4,29.7-19.6,48.7c2.5,12.6,9.4,22.8,20.2,30.1c8.8,6,18.6,8.4,29,8.4c104.8,0,209.6,0,314.4,0c0.7,0,1.3,0,2,0
		c8.3-0.1,17.5-6.4,16.5-17.7c-0.7-7.4-6.7-13.7-14.2-14.1c-1.8-0.1-3.7-0.1-5.5-0.1c-103.6,0-207.2,0-310.9,0c-1.3,0-2.7,0-4,0
		c-4.8-0.2-9-1.8-12.3-5.5c-4.4-4.9-5.7-10.4-3.1-16.5C120.9,366,125.4,362.3,132.4,362.2z"/>
</g>
</svg>
