<?xml version="1.0" encoding="utf-8"?>
<!-- Generator: Adobe Illustrator 25.0.0, SVG Export Plug-In . SVG Version: 6.00 Build 0)  -->
<svg version="1.1" id="Layer_1" xmlns="http://www.w3.org/2000/svg" xmlns:xlink="http://www.w3.org/1999/xlink" x="0px" y="0px"
	 viewBox="0 0 477 475.5" style="enable-background:new 0 0 477 475.5;" xml:space="preserve">
<style type="text/css">
	.st0{fill:#FFFFFF;}
</style>
<g>
	<path d="M59.8,366c-9.9,0-19.2,0.5-28.5-0.1c-16.2-1-28.6-14.2-30.5-27.4C0.5,336,0,333.5,0,331.1c0-53.4,0-106.8,0-160.2
		c0-9.5,3.1-17.9,9.9-24.7c6.3-6.3,13.9-10.1,23.1-9.9c1.5,0,3,0,4.5,0c134.1,0,268.1,0,402.2,0c5.3,0,10.6,0,15.6,2.1
		c11.2,4.7,18.4,12.7,20.8,24.7c0.7,3.4,0.9,6.9,0.9,10.3c0.1,52.4,0,104.8,0.1,157.2c0,7.3-1.6,14.1-5.8,20.1
		c-6.8,9.8-16.1,15.1-28,15.3c-8.5,0.1-16.9,0-25.7,0c-0.1-1.5-0.2-2.8-0.2-4c0-13,0-25.9,0-38.9c0-18.6-12.4-34.9-29.8-40.3
		c-3.3-1-6.7-1.8-10.2-1.7c-1.7,0-3.3,0-5,0c-89.2,0-178.3,0-267.5,0c-5.5,0-10.9,0.1-16.2,2.1c-14.7,5.5-24.2,15.7-27.8,31.1
		c-0.7,3.2-1,6.5-1,9.8c-0.1,12.6,0,25.3,0,37.9C59.8,363.2,59.8,364.3,59.8,366z M136.3,229.5c18.5,0.5,34.1-14.1,34.1-33.8
		c0-19.8-15.1-34.1-34-34.1c-19.6,0-34.3,14.8-34.1,34.4C102.4,216.2,119.1,230.2,136.3,229.5z M51.1,229.5
		c18.8,1,34.3-16.4,34-33.9c-0.2-17.8-14.5-34-33.7-33.9c-19.2,0.1-34.1,14.8-34.3,33.9C16.9,215,33.3,230.3,51.1,229.5z"/>
	<path d="M119.7,119.1c0-39.8,0-79.3,0-119.1C199,0,278.1,0,357.3,0c0,39.8,0,79.3,0,119.1C278.2,119.1,199.2,119.1,119.7,119.1z"/>
	<path d="M101.7,84.7c0,11.6,0,22.8,0,34.2c-4.1,0.7-8.2,0.2-12.3,0.3c-4,0.1-7.9,0-12.2,0c-0.2-1.2-0.4-2.3-0.4-3.4
		c0-7.1-0.1-14.3,0-21.4c0-5.9,3.1-9.5,8.8-9.8c4.3-0.3,8.6-0.1,12.9-0.1C99.5,84.7,100.5,84.7,101.7,84.7z"/>
	<path d="M375.5,84.7c5.3,0,10.3-0.1,15.2,0c6.2,0.2,9.5,3.6,9.5,9.6c0.1,8.1,0,16.2,0,24.6c-4.3,0.6-8.4,0.2-12.5,0.3
		c-4,0.1-7.9,0-11.8,0C374.9,116,374.6,92.3,375.5,84.7z"/>
	<path d="M136.4,212.5c-8.7,0.9-17.2-8-17-16.9c0.2-9.3,7.1-17.2,16.9-16.9c10.2,0.3,16.7,6.5,17,17
		C153.6,205.8,144.8,213,136.4,212.5z"/>
	<path d="M68,195.5c1,8.8-8.1,17.3-16.7,17.1c-9.4-0.2-17.4-7.3-17.1-17.3c0.3-9.4,6.8-16.6,17.4-16.6
		C62.2,178.6,68.7,188.4,68,195.5z"/>
	<path d="M320,298.3h55.2c13.8,0,25,11.2,25,25v42.6H320V298.3z"/>
	<path d="M157,298.3h-55.2c-13.8,0-25,11.2-25,25v42.6H157V298.3z"/>
	<g>
		<path d="M174.3,456c0,1.8,0.2,3.6,0.5,5.3c0.7,4.1,2.9,7.4,6.1,10.1c3.5,3,7.7,4.2,12.3,4.2c30.2,0,60.4,0,90.6,0
			c1.4,0,2.9-0.2,4.3-0.4c5.7-1,9.7-4.3,12.5-9.2c1.7-3.1,2.1-6.4,2.1-9.9c0-52.6,0-105.1,0-157.7H174.3
			C174.3,350.9,174.3,403.4,174.3,456z M234.4,420.9c0-7.1,5.8-12.9,12.9-12.9h26.9c7.1,0,12.9,5.8,12.9,12.9v26.9
			c0,7.1-5.8,12.9-12.9,12.9h-26.9c-7.1,0-12.9-5.8-12.9-12.9V420.9z"/>
	</g>
</g>
</svg>
