<svg width="49" height="48" viewBox="0 0 49 48" fill="none" xmlns="http://www.w3.org/2000/svg">
<path d="M6.33337 20V30C6.33337 35.6568 6.33337 38.4852 8.09073 40.2426C9.84809 42 12.6765 42 18.3334 42H24.3334" stroke="white" stroke-width="3" stroke-linecap="square"/>
<path d="M14.3334 34H22.3334" stroke="white" stroke-width="3" stroke-linecap="square"/>
<path d="M37.3334 27C41.1994 27 44.3334 30.0752 44.3334 33.8686C44.3334 38.1596 40.102 40.2692 38.0834 43.4858C37.6532 44.1714 37.0446 44.1714 36.5834 43.4858C34.5018 40.3914 30.3334 38.0702 30.3334 33.8686C30.3334 30.0752 33.4674 27 37.3334 27Z" stroke="white" stroke-width="3" stroke-linejoin="round"/>
<path d="M37.3334 34H37.3514" stroke="white" stroke-width="4" stroke-linecap="round" stroke-linejoin="round"/>
<path d="M20.6075 15.8426C20.0434 17.8819 17.9923 21.3996 14.0953 21.9094C10.6544 22.3596 8.0447 20.8558 7.3781 20.227C6.64314 19.7172 4.9681 18.0858 4.55789 17.0661C4.14768 16.0465 4.62626 13.8373 4.9681 12.9366L6.33464 8.97502C6.66824 7.97998 7.44917 5.62652 8.2498 4.83049C9.05043 4.03446 10.6714 3.99983 11.3386 3.99983H25.3496C28.9561 4.05083 36.8416 3.96763 38.4004 3.99983C39.9593 4.03203 40.8959 5.34031 41.1694 5.90111C43.4952 11.5416 44.3998 14.772 44.3998 16.1485C44.0961 17.6169 43.9393 20.6916 39.5 21.9094C34.886 23.1751 31.1707 20.4074 30.35 19.4623M18.7102 19.4623C19.3597 20.261 21.5465 21.8686 24.5 21.9094C27.4535 21.9502 29.8543 19.8871 30.7602 18.8505C31.0166 18.5446 31.5704 17.6371 32.1447 15.8426" stroke="white" stroke-width="3" stroke-linecap="square"/>
</svg>
