<svg width="44" height="36" viewBox="0 0 44 36" fill="none" xmlns="http://www.w3.org/2000/svg">
<path d="M36.6666 29C36.6666 31.7614 34.428 34 31.6666 34C28.9052 34 26.6666 31.7614 26.6666 29C26.6666 26.2386 28.9052 24 31.6666 24C34.428 24 36.6666 26.2386 36.6666 29Z" stroke="white" stroke-width="3"/>
<path d="M16.6666 29C16.6666 31.7614 14.428 34 11.6666 34C8.9052 34 6.66663 31.7614 6.66663 29C6.66663 26.2386 8.9052 24 11.6666 24C14.428 24 16.6666 26.2386 16.6666 29Z" stroke="white" stroke-width="3"/>
<path d="M26.6666 29H16.6666M36.6666 29H38.1929C38.6329 29 38.8529 29 39.0377 28.977C40.4004 28.8071 41.4737 27.7337 41.6436 26.3711C41.6666 26.1863 41.6666 25.9663 41.6666 25.5263V20C41.6666 12.8203 35.8463 7 28.6666 7M1.66663 2H21.6666C24.4951 2 25.9093 2 26.7879 2.87868C27.6666 3.75736 27.6666 5.17157 27.6666 8V25M1.66663 19.5V24C1.66663 25.8692 1.66663 26.8038 2.06855 27.5C2.33185 27.9561 2.71057 28.3348 3.16663 28.5981C3.86278 29 4.79739 29 6.66663 29" stroke="white" stroke-width="3" stroke-linecap="square" stroke-linejoin="round"/>
<path d="M1.66663 8H13.6666M1.66663 14H9.66663" stroke="white" stroke-width="3" stroke-linecap="square" stroke-linejoin="round"/>
</svg>
