<svg width="48" height="48" viewBox="0 0 48 48" fill="none" xmlns="http://www.w3.org/2000/svg">
<path d="M43.9288 9.0123C43.9288 9.0123 44.281 5.44284 43.419 4.58096M43.419 4.58096C42.552 3.71398 38.9882 4.0742 38.9882 4.0742M43.419 4.58096L38 9.99994" stroke="white" stroke-width="3" stroke-linecap="square" stroke-linejoin="round"/>
<path d="M43.9288 38.9876C43.9288 38.9876 44.281 42.557 43.419 43.419M43.419 43.419C42.552 44.286 38.9882 43.9258 38.9882 43.9258M43.419 43.419L38 38" stroke="white" stroke-width="3" stroke-linecap="square" stroke-linejoin="round"/>
<path d="M4.58096 4.58094L10 9.99994M4.58096 4.58094C5.44794 3.71398 9.01186 4.0742 9.01186 4.0742M4.58096 4.58094C3.71906 5.44284 4.07122 9.01228 4.07122 9.01228" stroke="white" stroke-width="3" stroke-linecap="square" stroke-linejoin="round"/>
<path d="M4.58096 43.419L10 38M4.58096 43.419C5.44794 44.286 9.01186 43.9258 9.01186 43.9258M4.58096 43.419C3.71906 42.5572 4.07122 38.9878 4.07122 38.9878" stroke="white" stroke-width="3" stroke-linecap="square"/>
<path d="M38 24C38 31.732 31.732 38 24 38C16.268 38 10 31.732 10 24C10 16.268 16.268 10 24 10C31.732 10 38 16.268 38 24Z" stroke="white" stroke-width="3"/>
<path d="M23.828 18.6025C21.6188 18.6025 20 19.8868 20 21.3774C20 22.8679 21.0438 23.7997 24 23.7997C27.2564 23.7997 28 25.2846 28 26.7751C28 28.2655 26.5766 29.4428 23.828 29.4428M23.828 18.6025C25.5696 18.6025 26.4901 19.2123 27.2171 20.0331M23.828 18.6025V16.9141M23.828 29.4428C22.0864 29.4428 21.4092 29.0987 20.4499 28.2308M23.828 29.4428V31.0177" stroke="white" stroke-width="3" stroke-linecap="square"/>
</svg>
