<svg width="48" height="49" viewBox="0 0 48 49" fill="none" xmlns="http://www.w3.org/2000/svg">
<g clip-path="url(#clip0_10422_120178)">
<rect y="0.5" width="48" height="48" rx="4" fill="black"/>
<path d="M13.06 34.188L14.428 26.772H21.664L20.764 31.704L20.98 31.884H23.464L23.68 31.704L24.976 24.936L24.832 24.756H20.368L21.448 19.644H25.912L26.128 19.356L26.92 15.072L34.228 13.884H24.436L24.148 14.136L23.356 18.168H16.156L17.38 11.58L19.972 8.736H33.292L34.768 11.58L33.148 20.256L31.132 22.272L31.06 22.74L32.284 24.756L30.448 34.188L27.604 37.464H14.68L13.06 34.188Z" fill="white"/>
</g>
<defs>
<clipPath id="clip0_10422_120178">
<rect y="0.5" width="48" height="48" rx="4" fill="white"/>
</clipPath>
</defs>
</svg>
