<svg width="118" height="98" viewBox="0 0 118 98" fill="none" xmlns="http://www.w3.org/2000/svg">
<g clip-path="url(#clip0_10422_39140)">
<path d="M117.769 56.7759C117.121 53.1679 115.04 50.5776 111.848 49.5137C109.628 48.7736 107.5 48.4498 105.372 48.4961C109.165 46.2757 111.663 42.7603 112.866 38.0421C113.513 35.4055 114.3 32.3063 114.901 29.0684C115.317 26.9868 115.41 24.9978 115.271 23.2401C114.901 19.1695 112.357 16.0703 108.332 14.9602C107.315 14.6826 106.297 14.5439 105.418 14.4051C105.095 14.3589 104.771 14.3126 104.447 14.2663L104.077 14.1738H103.661C103.244 14.1738 102.828 14.2201 102.458 14.2663L106.112 7.4204C106.251 7.18912 106.343 6.91158 106.482 6.63404L108.934 1.22205L102.967 0.944508C102.689 0.944508 102.504 0.898251 102.273 0.898251H100.191C98.6186 0.898251 97.0459 0.898251 95.4732 0.898251C93.3917 0.898251 91.6802 1.86964 90.7088 3.71989C89.8299 5.33886 88.9511 7.00409 88.0722 8.62306C87.1008 5.70891 84.8805 3.48861 81.8276 2.51722C76.3693 0.713226 70.726 2.05466 66.7943 5.57014C65.3603 3.34984 63.0475 1.82338 59.9483 1.12953C59.1157 0.944508 58.2368 0.851995 57.1729 0.759482C51.4371 0.343175 46.719 2.05466 43.296 5.70891C41.9546 3.58112 39.8268 2.0084 37.0977 1.36081C35.1549 0.898251 33.0734 0.713226 30.8531 0.759482C25.6261 0.944508 21.3705 3.16481 18.4564 7.23537C14.8946 12.2311 13.1369 18.1056 12.9981 25.3216C12.9518 26.9868 13.3219 28.5596 13.9695 29.8547C12.5818 30.3636 11.4716 31.5662 11.1016 33.0002C10.6853 34.6654 10.3152 36.1919 10.0377 37.6258C8.9738 42.7603 11.2866 47.2934 15.9585 49.3749C13.5994 50.1613 11.4254 51.5027 9.80641 53.3067C7.53985 55.8046 5.96713 58.9037 5.04201 62.8355C3.83934 67.8775 2.68293 72.8732 1.52652 77.9151L0.925189 80.5055C0.462626 82.4945 -0.0461944 84.7148 0.0925748 87.1664C0.323857 91.5145 3.00673 95.0762 7.07729 96.5102C8.74252 97.1115 10.3615 97.2503 11.7029 97.2503C12.2117 97.2503 12.6743 97.2503 13.0906 97.204C15.4959 97.0652 17.6237 96.5102 19.5203 95.6313L22.3419 96.5564C22.5732 96.6489 23.1282 96.8802 23.9146 96.8802H25.1635C27.1063 96.8802 29.0491 96.8802 30.9918 96.8802C31.6857 96.8802 32.3333 96.6952 32.8883 96.3714L32.8421 96.6027L37.3752 96.8802C37.6527 96.8802 37.884 96.9265 38.1153 96.9265H39.9193C41.307 96.9265 42.6484 96.9265 44.0361 96.9265C44.0824 96.9265 44.1286 96.9265 44.1749 96.9265C45.6088 96.9265 47.2278 96.3251 48.1529 94.7987C49.4481 95.8163 51.0208 96.5564 52.9636 96.9265C54.2125 97.1578 55.4614 97.2965 56.7104 97.2965C57.6818 97.2965 58.6994 97.204 59.6708 97.0652C61.4748 96.7877 63.14 96.1864 64.6202 95.3075L67.5806 96.5102L68.4595 96.8802H74.2878C77.8958 96.8802 81.5038 96.8802 85.1118 96.8802C86.4532 96.8802 88.0722 96.2789 88.9511 94.6599C90.2 95.6776 91.819 96.4177 93.7617 96.834C94.4556 96.9727 95.1494 97.0652 95.9358 97.1578C96.6296 97.204 97.2772 97.2503 97.9248 97.2503C103.938 97.2503 108.379 94.4749 111.339 88.8316C112.403 86.7501 113.236 84.4373 113.883 81.4769C114.947 76.6662 113.976 72.3643 111.062 68.7101C110.923 68.5251 110.738 68.34 110.599 68.155C111.478 68.155 112.403 68.155 113.282 68.155C115.225 68.1088 117.075 66.6286 117.491 64.6858C117.861 62.373 118.278 59.6901 117.769 56.7759Z" fill="black"/>
<path d="M117.769 56.7759C117.121 53.1679 115.04 50.5776 111.848 49.5137C109.628 48.7736 107.5 48.4498 105.372 48.4961C109.165 46.2757 111.663 42.7603 112.866 38.0421C113.513 35.4055 114.3 32.3063 114.901 29.0684C115.317 26.9868 115.41 24.9978 115.271 23.2401C114.901 19.1695 112.357 16.0703 108.332 14.9602C107.315 14.6826 106.297 14.5439 105.418 14.4051C105.095 14.3589 104.771 14.3126 104.447 14.2663L104.077 14.1738H103.661C103.244 14.1738 102.828 14.2201 102.458 14.2663L106.112 7.4204C106.251 7.18912 106.343 6.91158 106.482 6.63404L108.934 1.22205L102.967 0.944508C102.689 0.944508 102.504 0.898251 102.273 0.898251H100.191C98.6186 0.898251 97.0459 0.898251 95.4732 0.898251C93.3917 0.898251 91.6802 1.86964 90.7088 3.71989C89.8299 5.33886 88.9511 7.00409 88.0722 8.62306C87.1008 5.70891 84.8805 3.48861 81.8276 2.51722C76.3693 0.713226 70.726 2.05466 66.7943 5.57014C65.3603 3.34984 63.0475 1.82338 59.9483 1.12953C59.1157 0.944508 58.2368 0.851995 57.1729 0.759482C51.4371 0.343175 46.719 2.05466 43.296 5.70891C41.9546 3.58112 39.8268 2.0084 37.0977 1.36081C35.1549 0.898251 33.0734 0.713226 30.8531 0.759482C25.6261 0.944508 21.3705 3.16481 18.4564 7.23537C14.8946 12.2311 13.1369 18.1056 12.9981 25.3216C12.9518 26.9868 13.3219 28.5596 13.9695 29.8547C12.5818 30.3636 11.4716 31.5662 11.1016 33.0002C10.6853 34.6654 10.3152 36.1919 10.0377 37.6258C8.9738 42.7603 11.2866 47.2934 15.9585 49.3749C13.5994 50.1613 11.4254 51.5027 9.80641 53.3067C7.53985 55.8046 5.96713 58.9037 5.04201 62.8355C3.83934 67.8775 2.68293 72.8732 1.52652 77.9151L0.925189 80.5055C0.462626 82.4945 -0.0461944 84.7148 0.0925748 87.1664C0.323857 91.5145 3.00673 95.0762 7.07729 96.5102C8.74252 97.1115 10.3615 97.2503 11.7029 97.2503C12.2117 97.2503 12.6743 97.2503 13.0906 97.204C15.4959 97.0652 17.6237 96.5102 19.5203 95.6313L22.3419 96.5564C22.5732 96.6489 23.1282 96.8802 23.9146 96.8802H25.1635C27.1063 96.8802 29.0491 96.8802 30.9918 96.8802C31.6857 96.8802 32.3333 96.6952 32.8883 96.3714L32.8421 96.6027L37.3752 96.8802C37.6527 96.8802 37.884 96.9265 38.1153 96.9265H39.9193C41.307 96.9265 42.6484 96.9265 44.0361 96.9265C44.0824 96.9265 44.1286 96.9265 44.1749 96.9265C45.6088 96.9265 47.2278 96.3251 48.1529 94.7987C49.4481 95.8163 51.0208 96.5564 52.9636 96.9265C54.2125 97.1578 55.4614 97.2965 56.7104 97.2965C57.6818 97.2965 58.6994 97.204 59.6708 97.0652C61.4748 96.7877 63.14 96.1864 64.6202 95.3075L67.5806 96.5102L68.4595 96.8802H74.2878C77.8958 96.8802 81.5038 96.8802 85.1118 96.8802C86.4532 96.8802 88.0722 96.2789 88.9511 94.6599C90.2 95.6776 91.819 96.4177 93.7617 96.834C94.4556 96.9727 95.1494 97.0652 95.9358 97.1578C96.6296 97.204 97.2772 97.2503 97.9248 97.2503C103.938 97.2503 108.379 94.4749 111.339 88.8316C112.403 86.7501 113.236 84.4373 113.883 81.4769C114.947 76.6662 113.976 72.3643 111.062 68.7101C110.923 68.5251 110.738 68.34 110.599 68.155C111.478 68.155 112.403 68.155 113.282 68.155C115.225 68.1088 117.075 66.6286 117.491 64.6858C117.861 62.373 118.278 59.6901 117.769 56.7759Z" fill="black"/>
<path d="M37.1904 92.9435C37.5142 90.7695 37.7918 88.688 38.1155 86.4677C37.0517 86.4677 36.0803 86.4677 35.1089 86.4677C33.2124 86.4677 33.2124 86.4676 32.6573 88.2716C32.241 89.6131 31.8709 90.9545 31.4546 92.296C31.3621 92.5735 31.0383 92.9435 30.807 92.9435C28.4942 92.9898 26.1351 92.9435 23.7761 92.9435C23.6836 92.9435 23.6373 92.8973 23.4985 92.851C23.6836 92.2497 23.8686 91.6021 24.0999 91.0008C28.1704 78.4653 32.2872 65.9761 36.3578 53.4406C36.5428 52.8855 36.7741 52.7005 37.3754 52.7005C41.3998 52.7468 45.4241 52.7468 49.4484 52.7005C50.0959 52.7005 50.2347 52.9318 50.1885 53.5331C49.3558 59.5464 48.5232 65.5135 47.7369 71.5268C46.8117 78.3728 45.8866 85.265 45.0077 92.1109C44.9152 92.7123 44.7765 92.9898 44.0826 92.9898C42.0936 92.9435 40.0583 92.9898 38.0693 92.9898C37.7918 92.9898 37.5605 92.9898 37.1904 92.9435ZM35.3402 80.0843C36.4503 80.0843 37.4217 80.0843 38.3468 80.0843C38.8557 80.0843 39.0407 79.9455 39.0869 79.4367C40.0121 72.9608 40.9372 66.5312 41.8623 60.0553C41.8623 59.9165 41.8161 59.7777 41.7698 59.6852L41.4923 59.639C39.457 66.3461 37.4217 73.1458 35.3402 80.0843Z" fill="white"/>
<path d="M25.8111 75.7362C25.256 78.0952 24.7934 80.3618 24.1921 82.6284C23.822 84.0623 23.4057 85.5425 22.8044 86.8839C20.8154 91.0933 17.2999 93.036 12.7668 93.3136C11.2403 93.4061 9.7601 93.3598 8.2799 92.851C5.68954 91.9259 4.07057 89.7056 3.88554 86.9302C3.74677 84.7099 4.3481 82.6284 4.81067 80.5468C6.10585 74.9035 7.35477 69.3065 8.74246 63.6632C9.43631 60.7954 10.5927 58.0662 12.628 55.8459C15.6347 52.5617 21.3242 51.3591 25.441 53.1168C27.9851 54.1807 29.2803 56.1697 29.234 58.8988C29.1878 60.2403 28.9102 61.5817 28.6327 62.9231C28.3089 64.6809 27.8463 66.3924 27.43 68.1501C27.3838 68.3814 27.06 68.7514 26.875 68.7514C24.4234 68.7977 22.018 68.7514 19.5665 68.7514C19.5202 68.7514 19.4739 68.7052 19.3352 68.6589C19.659 67.3638 19.9365 66.0223 20.2603 64.6809C20.4916 63.7095 20.7229 62.7381 20.8616 61.7205C20.9541 61.0266 21.0467 60.2865 20.214 59.9165C19.4739 59.5927 18.3175 59.8702 17.855 60.6103C17.4387 61.2579 17.1611 61.998 16.9761 62.7381C16.1897 65.9298 15.4496 69.1215 14.7095 72.3594C13.8769 75.9212 13.0443 79.4829 12.2579 83.0909C12.1654 83.5535 12.1192 84.0161 12.1192 84.5249C12.1192 85.0799 12.1654 85.7738 12.813 85.9126C13.3681 86.0513 14.1082 86.0051 14.5245 85.7275C15.0796 85.3575 15.4959 84.7099 15.7272 84.0623C16.1897 82.6746 16.4673 81.1944 16.8373 79.7605C17.1149 78.6503 17.3461 77.4939 17.6237 76.3838C17.7162 76.0137 17.8087 75.7362 18.2713 75.7362C20.6766 75.7824 23.0357 75.7362 25.441 75.7362C25.4873 75.6899 25.5798 75.7362 25.8111 75.7362Z" fill="white"/>
<path d="M105.326 64.2646C105.511 63.3857 105.65 62.6919 105.789 61.9518C106.066 60.7028 105.927 60.1015 105.234 59.8702C104.308 59.5464 103.106 59.9627 102.597 60.8879C102.042 61.8593 101.996 62.9232 102.458 63.9408C102.782 64.6809 103.244 65.3747 103.753 66.0223C105.095 67.7338 106.482 69.4453 107.87 71.1568C110.137 73.9784 110.692 77.1701 109.952 80.6856C109.489 82.9059 108.841 85.0799 107.778 87.069C105.234 91.8796 101.626 93.8224 96.1673 93.3598C95.6122 93.3136 95.0108 93.2211 94.4558 93.1286C90.9865 92.3885 89.4138 90.3994 89.3676 86.8839C89.3213 83.9698 90.1539 81.2407 90.8015 78.419C90.8478 78.234 91.1253 78.0027 91.3103 78.0027C93.7157 78.0027 96.0747 78.0027 98.4801 78.0027C98.5263 78.0027 98.6188 78.049 98.7576 78.0952C98.3876 79.668 98.0175 81.2407 97.6475 82.8596C97.5549 83.2297 97.4624 83.646 97.4624 84.0623C97.4162 84.7562 97.4162 85.4963 98.2025 85.8663C98.8964 86.1901 100.053 85.9588 100.515 85.3112C100.839 84.8949 101.07 84.3398 101.255 83.831C102.088 81.1019 101.903 78.5578 99.9603 76.245C98.7114 74.811 97.6475 73.2383 96.4911 71.8044C94.1782 68.8902 93.5769 65.6523 94.5483 62.0905C95.4734 58.8526 96.8611 55.9384 99.8215 54.0882C103.244 51.9604 106.899 51.8679 110.645 53.1631C112.635 53.8569 113.652 55.4296 114.022 57.4649C114.392 59.5927 114.068 61.7205 113.606 63.802C113.56 63.987 113.282 64.2646 113.143 64.2646C110.553 64.2646 108.009 64.2646 105.326 64.2646Z" fill="white"/>
<path d="M57.7743 78.1415C57.4043 79.6679 57.0805 81.1944 56.7105 82.7209C56.6179 83.1834 56.5254 83.5997 56.4792 84.0623C56.4329 84.7561 56.4329 85.45 57.1268 85.8663C57.7281 86.2364 58.8382 86.0513 59.3933 85.4962C59.7171 85.1725 59.9484 84.8024 60.1334 84.3861C61.1511 81.5645 61.1511 78.8353 59.0695 76.3837C57.8669 74.9498 56.803 73.4233 55.6466 71.9894C53.2875 69.0752 52.5936 65.8373 53.6113 62.2293C54.3514 59.5002 55.5078 57.0023 57.6356 55.1058C60.1797 52.8393 63.2789 52.1917 66.5631 52.5155C67.4882 52.608 68.4133 52.793 69.2922 53.0705C71.6513 53.8106 72.8539 55.5684 73.1777 57.9737C73.409 59.9627 73.1777 61.9055 72.7152 63.802C72.6689 64.0333 72.3451 64.3571 72.1601 64.3571C69.7085 64.4033 67.2569 64.3571 64.7591 64.3571C64.7128 64.3571 64.6203 64.3108 64.4815 64.2646C64.6203 63.4782 64.8053 62.6456 64.9441 61.8593C65.0829 61.2117 65.2216 60.5641 64.6203 60.1478C63.9727 59.6852 63.2789 59.824 62.6313 60.1478C61.6136 60.6566 61.0123 62.0443 61.4286 63.3395C61.6599 64.1258 62.0762 64.9584 62.5388 65.606C63.8339 67.3175 65.2216 68.9827 66.6093 70.648C69.2922 73.8859 69.986 77.4939 68.9221 81.5182C68.182 84.2473 67.3032 86.8839 65.6379 89.243C64.019 91.5096 61.7987 92.851 59.0233 93.3136C57.2655 93.5911 55.4615 93.5449 53.7038 93.2211C50.142 92.481 48.4306 90.5382 48.5693 86.8839C48.6156 84.8024 49.1244 82.7209 49.4482 80.6393C49.5407 79.9455 49.7257 79.2516 49.9108 78.6041C49.957 78.419 50.2346 78.0952 50.4196 78.0952C52.8249 78.049 55.2302 78.0952 57.6356 78.0952C57.5893 78.0027 57.6356 78.049 57.7743 78.1415Z" fill="white"/>
<path d="M87.2394 85.1725C86.9156 86.6064 86.6381 87.9016 86.3605 89.1968C86.1292 90.2607 85.8517 91.3708 85.6204 92.4347C85.5279 92.7585 85.4354 93.036 84.9728 93.036C79.6996 93.036 74.4264 93.036 69.1532 92.9898C69.1069 92.9898 69.0606 92.9435 68.9219 92.8973C69.1532 91.9259 69.3382 90.9545 69.5695 89.9369C72.021 79.2054 74.5189 68.5202 77.0167 57.7887C77.3405 56.3548 77.6643 54.9208 77.9881 53.4406C78.0806 52.978 78.2657 52.7005 78.8207 52.7005C83.7702 52.7005 88.7196 52.7005 93.669 52.7005C93.8541 52.7005 93.9928 52.7468 94.2704 52.793C93.9003 54.4582 93.5303 56.0772 93.1602 57.6499C93.0214 58.3438 92.7902 58.9914 92.6976 59.6852C92.6051 60.2865 92.3739 60.4716 91.7725 60.4716C89.6447 60.4253 87.5169 60.4716 85.3429 60.4253C84.7878 60.4253 84.5565 60.5641 84.4178 61.1192C83.9552 63.2932 83.4001 65.421 82.9376 67.595C82.8913 67.7801 82.8913 67.9651 82.845 68.2889H90.3848C90.0148 70.0004 89.6447 71.6194 89.2747 73.2383C89.1359 73.8859 88.9046 74.5335 88.8121 75.2273C88.7196 75.7824 88.4421 75.9212 87.9332 75.8749C85.9905 75.8287 84.0014 75.9212 82.0587 75.8287C81.3186 75.8287 80.9948 76.0137 80.8098 76.8001C80.2547 79.5292 79.5608 82.2121 78.9133 85.08H87.2394V85.1725Z" fill="white"/>
<path d="M23.6834 33.5041C23.4983 34.3367 23.3133 35.1231 23.1745 35.9094C23.082 36.4183 23.0358 36.9271 23.0358 37.3896C23.0358 38.361 23.2671 38.5923 24.2384 38.546C25.2098 38.4998 25.8574 37.9447 26.0887 37.0658C26.5513 35.4006 26.9676 33.7354 27.3839 32.0239C27.5689 31.33 27.7077 30.6825 27.8927 29.8036C27.4764 30.0349 27.1988 30.1736 26.9213 30.3124C24.4235 31.3763 21.9719 31.2838 19.5665 30.1736C17.5775 29.2485 16.8374 27.3983 16.8837 25.363C16.9762 19.6272 18.2251 14.2152 21.6481 9.45079C23.8684 6.30535 27.1063 4.77889 30.9456 4.68638C32.7034 4.64012 34.4611 4.77889 36.1726 5.1952C39.2718 5.9353 40.8907 8.20186 41.0295 11.3936C41.122 13.8914 40.7057 16.2967 40.1506 18.7021C38.9017 23.929 37.699 29.156 36.3576 34.3367C35.8488 36.3257 35.0624 38.2685 34.1836 40.0725C32.0095 44.3743 28.3553 46.4096 23.5908 46.6409C21.7869 46.7334 19.9829 46.6872 18.2251 46.0396C14.7096 44.7907 13.0907 41.969 13.8308 38.361C14.1083 36.8808 14.4783 35.4006 14.8484 33.9667C14.8947 33.7354 15.2647 33.4578 15.496 33.4578C18.0863 33.4116 20.723 33.4578 23.3133 33.4578C23.3596 33.4116 23.4983 33.4578 23.6834 33.5041ZM22.2957 34.568C22.2032 34.5217 22.1569 34.4755 22.1106 34.4755C20.1216 34.4755 18.1326 34.4292 16.1436 34.4755C15.9585 34.4755 15.6348 34.7993 15.5885 35.0306C15.2647 36.372 14.9409 37.7134 14.7096 39.0549C14.2471 41.5527 15.3572 43.6342 17.67 44.7444C20.2141 45.9471 22.8507 45.762 25.5336 45.3457C28.494 44.8832 30.8068 43.3104 32.4721 40.8589C33.8135 38.8698 34.6461 36.6495 35.2475 34.383C36.5889 29.2023 37.7916 23.929 39.0405 18.7021C39.6418 16.2967 40.0581 13.8451 39.9656 11.3473C39.8268 8.66443 38.3929 6.86043 35.8025 6.16658C33.6285 5.61151 31.4082 5.56525 29.2341 5.9353C26.505 6.39787 24.2384 7.7393 22.5732 9.95961C21.3705 11.5786 20.4454 13.2901 19.7978 15.1866C18.6877 18.4245 17.9013 21.7087 17.9013 25.1317C17.9013 28.0921 19.4278 29.6648 22.3882 29.9424C24.7473 30.1736 26.8288 29.7573 28.4015 27.9071C29.2341 27.9996 29.3729 28.3696 29.1879 29.1097C28.5865 31.4688 28.1702 33.8741 27.5226 36.2332C27.2451 37.1584 26.7825 38.0835 26.1812 38.8698C25.4874 39.7025 23.9146 39.8875 23.0358 39.4712C22.0181 38.9623 22.0181 37.991 22.0644 37.0658C22.0644 36.187 22.2032 35.4006 22.2957 34.568Z" fill="white"/>
<path d="M47.3205 33.5041C47.1355 34.2905 46.9505 35.0768 46.8117 35.8169C46.7654 36.1407 46.7192 36.5108 46.7192 36.8808C46.7192 37.4359 46.4416 38.1297 47.1355 38.4998C47.7831 38.8236 48.8932 38.4073 49.3558 37.8059C49.4946 37.6209 49.6333 37.4359 49.6796 37.2046C50.2809 34.8455 50.8822 32.4402 51.5298 29.9424C51.2523 30.0349 51.1135 30.0349 51.021 30.0811C48.847 31.33 46.5341 31.2838 44.2213 30.6362C42.2323 30.0811 41.0296 28.6934 40.6133 26.7044C40.197 24.8079 40.4746 22.9114 40.7984 21.0149C41.3072 17.8694 42.186 14.8165 43.62 11.9024C46.3954 6.49038 50.836 4.22382 56.8031 4.68638C57.5432 4.73264 58.3295 4.82515 59.0234 4.96392C62.5851 5.70402 64.4354 7.92433 64.5741 11.6248C64.6666 13.9377 64.2503 16.158 63.6953 18.4245C62.4463 23.6977 61.2437 28.9247 59.9022 34.1517C59.2546 36.6958 58.3758 39.1936 56.8493 41.4139C54.9528 44.1893 52.4087 45.8545 49.0782 46.3634C46.7654 46.7334 44.4064 46.8259 42.1398 46.1783C39.5494 45.392 37.6992 43.9118 37.2366 41.1364C37.0978 40.165 37.1904 39.1474 37.3291 38.1297C37.5604 36.742 37.9305 35.4006 38.2543 34.0129C38.3468 33.6429 38.4393 33.3653 38.9018 33.3653C41.5385 33.3653 44.1751 33.3653 46.8117 33.3653C47.043 33.4116 47.1355 33.4578 47.3205 33.5041ZM45.8866 34.5217C45.8403 34.5217 45.7478 34.4755 45.7015 34.4755C43.7588 34.4755 41.7697 34.4292 39.827 34.4755C39.6419 34.4755 39.3182 34.8455 39.2256 35.0768C38.9481 36.0945 38.6706 37.1584 38.4855 38.2222C38.3468 39.1936 38.208 40.2575 38.393 41.1827C38.8093 43.3104 40.3358 44.5131 42.3248 45.1144C44.1751 45.7158 46.0716 45.6695 48.0143 45.4845C52.3624 45.0682 55.4154 42.8016 57.1731 38.8236C57.9132 37.1121 58.6071 35.3081 59.0696 33.5041C60.3648 28.5084 61.5212 23.4665 62.6776 18.4245C63.1864 16.2042 63.649 13.9377 63.5565 11.6248C63.464 8.43315 62.03 6.53663 58.8846 5.98156C57.1731 5.65776 55.3691 5.61151 53.6576 5.75028C50.3272 5.98156 47.7368 7.60053 45.794 10.3297C44.4526 12.2262 43.5275 14.354 42.8799 16.5743C42.0935 19.5347 41.3997 22.4951 41.5385 25.548C41.631 26.9819 42.0473 28.2771 43.3425 29.1097C45.6553 30.6362 49.7258 30.2199 51.6686 28.2309C51.9461 27.9071 52.2237 27.7683 52.5475 28.0921C52.7325 28.2771 52.825 28.6472 52.7788 28.8785C52.3624 30.8212 51.8999 32.764 51.4373 34.6605C51.206 35.6319 51.021 36.6495 50.651 37.5747C50.0959 39.0086 49.032 39.6562 47.5518 39.6099C46.3029 39.6099 45.6553 39.0086 45.6553 37.7597C45.6553 36.6958 45.794 35.6319 45.8866 34.5217Z" fill="white"/>
<path d="M72.2988 46.3171C72.4376 45.9933 72.5301 45.762 72.6226 45.577C79.7924 32.2552 86.9621 18.8871 94.1318 5.56525C94.4556 5.01017 94.7794 4.77889 95.427 4.77889C97.6936 4.82515 100.006 4.77889 102.273 4.77889C102.504 4.77889 102.736 4.77889 103.059 4.82515C102.921 5.14894 102.828 5.38023 102.689 5.61151C95.5658 18.8871 88.396 32.2089 81.2726 45.4845C80.9488 46.0858 80.625 46.3171 79.9311 46.3171C77.7108 46.2709 75.4905 46.3171 73.3165 46.3171C72.9927 46.3171 72.7151 46.3171 72.2988 46.3171ZM101.348 5.9353C100.978 5.88905 100.793 5.88905 100.608 5.88905C99.035 5.88905 97.4623 5.88905 95.8433 5.88905C95.3345 5.88905 95.057 6.07407 94.7794 6.53663C87.9797 19.2109 81.1801 31.8389 74.3804 44.5131C74.2416 44.7444 74.1953 44.9757 74.0103 45.3457C75.7218 45.3457 77.2945 45.2532 78.821 45.392C79.8849 45.4845 80.3474 45.0682 80.81 44.1431C86.6383 33.2266 92.5129 22.3563 98.3412 11.4861C99.3588 9.63581 100.33 7.83181 101.348 5.9353Z" fill="white"/>
<path d="M103.799 18.0545C104.956 18.2395 106.158 18.332 107.269 18.6558C109.72 19.3497 111.2 21.0611 111.385 23.559C111.524 25.1317 111.385 26.7507 111.062 28.3234C110.507 31.2375 109.813 34.1517 109.073 37.0658C108.194 40.4888 106.482 43.3104 103.383 45.1607C100.561 46.8259 97.5547 47.1497 94.4556 46.3171C91.9577 45.6233 90.1537 43.5417 90.015 40.8589C89.9224 39.3324 90.0612 37.7597 90.385 36.2332C90.9401 33.4116 91.6339 30.5899 92.3278 27.8146C92.8828 25.5943 93.7617 23.5127 95.2882 21.8012C97.5085 19.1646 100.469 18.1932 103.799 18.0545ZM97.5547 45.8545C98.8037 45.577 100.099 45.4845 101.255 45.0219C105.048 43.588 107.084 40.6276 108.055 36.8808C108.749 34.1517 109.396 31.4226 109.951 28.6472C110.229 27.3057 110.46 25.9181 110.46 24.5766C110.414 21.9863 109.165 20.2748 106.899 19.6734C104.216 18.9333 101.579 19.0721 98.9887 20.2285C96.2133 21.4312 94.5943 23.744 93.7617 26.5194C93.0679 28.7397 92.6053 31.0525 92.0965 33.3191C91.6802 35.2618 91.1714 37.2046 90.9863 39.1474C90.7551 41.2289 91.2639 43.1717 93.0216 44.5131C94.3631 45.4845 95.9358 45.6695 97.5547 45.8545Z" fill="white"/>
<path d="M70.8646 34.1979C68.8756 34.1979 67.0716 33.9204 65.5914 32.764C63.4636 31.0988 62.816 28.8322 63.1398 26.2881C63.5098 23.6515 64.1574 21.0149 64.7587 18.4245C65.2213 16.4818 65.6376 14.539 66.3777 12.735C68.6905 6.9992 74.7039 4.31633 80.5784 6.21284C83.1225 7.04546 84.649 9.12699 84.7415 11.9949C84.834 13.9839 84.3252 15.8804 83.8626 17.7769C83.215 20.3673 82.7525 23.0039 81.9661 25.548C80.6709 29.8961 77.8956 32.9028 73.3624 33.9667C72.9461 34.0592 72.5298 34.1054 72.1135 34.1517C71.6972 34.1979 71.1884 34.1979 70.8646 34.1979ZM70.6796 33.1803C75.3977 33.1803 79.2832 30.4974 80.7635 25.9181C81.6886 23.0502 82.2437 20.0898 82.9375 17.1756C83.3538 15.4641 83.7701 13.7064 83.6776 11.9024C83.5388 9.77458 82.6137 8.15561 80.5322 7.36925C75.4902 5.42648 69.6619 7.7393 67.5341 12.6887C66.7478 14.4927 66.2852 16.4818 65.8226 18.4245C65.1751 20.9686 64.5275 23.559 64.1574 26.1493C63.5098 30.4512 66.0077 33.1803 70.3558 33.2266C70.4945 33.1803 70.587 33.1803 70.6796 33.1803Z" fill="white"/>
<path d="M22.2956 34.568C22.2031 35.3543 22.0643 36.187 22.0181 37.0196C21.9718 37.9447 21.9256 38.9161 22.9895 39.4249C23.8683 39.8412 25.441 39.6562 26.1349 38.8236C26.7362 38.0835 27.245 37.1583 27.4763 36.187C28.1239 33.8279 28.5865 31.4226 29.1415 29.0635C29.3266 28.3696 29.1878 27.9533 28.3552 27.8608C26.8287 29.7111 24.7009 30.1274 22.3419 29.8961C19.3815 29.5723 17.9012 28.0458 17.855 25.0854C17.855 21.6625 18.5951 18.3783 19.7515 15.1403C20.3991 13.2438 21.3242 11.4861 22.5269 9.91335C24.2384 7.69304 26.4587 6.35161 29.1878 5.88904C31.4081 5.51899 33.5822 5.56525 35.7562 6.12033C38.3466 6.81417 39.7805 8.61817 39.9193 11.301C40.0581 13.7989 39.5955 16.2505 38.9942 18.6558C37.7452 23.8828 36.5426 29.1097 35.2011 34.3367C34.5998 36.6033 33.7672 38.8236 32.4257 40.8126C30.7605 43.3104 28.4477 44.8369 25.4873 45.2995C22.8507 45.7158 20.1678 45.9008 17.6237 44.6981C15.3109 43.6342 14.2007 41.5064 14.6633 39.0086C14.8946 37.6672 15.2184 36.3257 15.5422 34.9843C15.5884 34.753 15.9122 34.4292 16.0973 34.4292C18.0863 34.383 20.0753 34.4292 22.0643 34.4292C22.2031 34.4755 22.2493 34.5217 22.2956 34.568ZM32.5183 14.4002C32.472 13.4751 32.287 12.6425 31.3619 12.2262C30.4367 11.8099 29.1415 12.0874 28.5402 12.8275C28.2164 13.1976 27.8926 13.7064 27.7539 14.1689C27.1525 16.2505 26.6437 18.332 26.0886 20.4135C25.9499 20.9224 25.9036 21.5237 25.9499 22.0325C26.0424 23.374 27.0138 24.0678 28.3552 23.8365C29.6041 23.6052 30.3442 22.8189 30.7605 21.6625C31.0381 20.8761 31.2231 20.0435 31.4081 19.2109C31.7782 17.6382 32.1482 16.0192 32.5183 14.4002Z" fill="black"/>
<path d="M45.8866 34.5217C45.794 35.5856 45.6553 36.6958 45.6553 37.7597C45.6553 39.0086 46.3029 39.6099 47.5518 39.6099C49.032 39.6562 50.0959 39.0086 50.651 37.5747C51.021 36.6495 51.206 35.6319 51.4373 34.6605C51.8999 32.7177 52.3624 30.8212 52.7788 28.8785C52.825 28.6472 52.6862 28.2771 52.5475 28.0921C52.2699 27.7683 51.9924 27.9533 51.6686 28.2309C49.7258 30.2199 45.6553 30.6362 43.3425 29.1097C42.0935 28.2771 41.631 26.9819 41.5385 25.548C41.3997 22.4951 42.0935 19.5347 42.9261 16.6668C43.5737 14.4465 44.4989 12.3187 45.8403 10.4222C47.7368 7.69305 50.3734 6.07407 53.7039 5.84279C55.4616 5.70402 57.2194 5.79654 58.9308 6.07407C62.0763 6.67541 63.5102 8.52566 63.6027 11.7174C63.6953 14.0302 63.2327 16.2505 62.7239 18.517C61.5212 23.559 60.3648 28.6009 59.1159 33.5966C58.6533 35.4006 57.9595 37.2046 57.2194 38.9161C55.4616 42.8479 52.455 45.1607 48.0606 45.577C46.1641 45.762 44.2213 45.8083 42.3711 45.207C40.382 44.5594 38.8556 43.403 38.4393 41.2752C38.2543 40.3038 38.393 39.2861 38.5318 38.3148C38.6706 37.2509 38.9481 36.187 39.2719 35.1693C39.3181 34.938 39.6419 34.568 39.8732 34.568C41.816 34.5217 43.805 34.568 45.7478 34.568C45.794 34.4755 45.8403 34.5217 45.8866 34.5217ZM49.5408 21.4774C49.5408 22.3563 49.6333 23.1889 50.4659 23.6515C51.3911 24.1603 52.3624 23.929 53.1488 23.3277C53.6114 22.9576 53.9814 22.4488 54.2127 21.94C54.5365 21.2924 54.6753 20.5523 54.8603 19.8585C55.2766 18.2395 55.6466 16.5743 55.9704 14.9553C56.1555 14.0302 56.1092 13.105 55.3229 12.4575C54.5827 11.9024 53.7039 11.9024 52.9175 12.3187C52.4087 12.5962 51.8999 13.0588 51.6686 13.5213C50.5122 16.0654 50.1421 18.7946 49.5408 21.4774Z" fill="black"/>
<path d="M101.348 5.9353C100.33 7.83181 99.3589 9.63581 98.3875 11.4398C92.5129 22.3101 86.6846 33.2266 80.8563 44.0968C80.3938 44.9757 79.8849 45.392 78.8673 45.3457C77.3408 45.2532 75.7681 45.2995 74.0566 45.2995C74.1954 44.9294 74.2879 44.6981 74.4267 44.4669C81.2264 31.7926 88.0261 19.1646 94.8257 6.49038C95.057 6.02781 95.3346 5.84279 95.8896 5.84279C97.4624 5.88905 99.0351 5.84279 100.654 5.84279C100.793 5.84279 100.978 5.88904 101.348 5.9353Z" fill="black"/>
<path d="M97.5549 45.8546C95.8897 45.7158 94.3632 45.4845 93.0218 44.4669C91.264 43.0792 90.7552 41.1827 90.9865 39.1011C91.2178 37.1584 91.6803 35.2156 92.0966 33.2728C92.6055 31.0063 93.068 28.6934 93.7619 26.4731C94.6407 23.6978 96.2597 21.4312 98.9888 20.1823C101.533 19.0721 104.216 18.9333 106.899 19.6272C109.165 20.2285 110.414 21.94 110.46 24.5304C110.46 25.8718 110.229 27.2595 109.952 28.6009C109.397 31.3301 108.749 34.1054 108.055 36.8346C107.084 40.6276 105.048 43.588 101.255 44.9757C100.099 45.4845 98.8038 45.577 97.5549 45.8546ZM102.643 23.4202C100.978 23.4202 100.006 24.1603 99.4977 26.1031C98.5263 30.0811 97.6012 34.1054 96.7223 38.1297C96.3985 39.6562 97.5086 40.8589 99.0814 40.7664C100.515 40.6738 101.672 39.5637 102.088 37.8985C102.643 35.5394 103.198 33.2266 103.707 30.8675C104.077 29.2948 104.447 27.6758 104.725 26.1031C105.095 24.2528 104.355 23.4202 102.643 23.4202Z" fill="black"/>
<path d="M70.6798 33.1803C70.5872 33.1803 70.4947 33.1803 70.356 33.1803C66.0079 33.1803 63.51 30.4049 64.1576 26.1031C64.5277 23.5127 65.1753 20.9224 65.8228 18.3783C66.2854 16.4355 66.748 14.4465 67.5343 12.6425C69.6621 7.69304 75.4904 5.38023 80.5324 7.32299C82.6139 8.10935 83.4928 9.72832 83.6778 11.8561C83.8166 13.6601 83.4003 15.4179 82.9377 17.1293C82.1976 20.0435 81.6888 23.0502 80.7636 25.8718C79.2834 30.4974 75.4442 33.1803 70.6798 33.1803ZM75.5829 10.931C74.4728 10.8847 73.5476 11.5323 73.0388 12.7812C72.8538 13.2901 72.6688 13.7526 72.53 14.2614C72.1137 15.9267 71.7437 17.5919 71.3736 19.2571C70.911 21.2924 70.4485 23.3277 69.9859 25.363C69.7546 26.3344 69.8934 27.167 70.726 27.8146C71.5124 28.4159 72.4375 28.4159 73.2701 27.9996C74.2878 27.537 74.9816 26.7044 75.2591 25.5943C75.7217 23.6052 76.1843 21.6162 76.6006 19.6734C77.0631 17.5919 77.572 15.5104 77.942 13.4288C78.2658 11.7173 77.4794 10.931 75.5829 10.931Z" fill="black"/>
<path d="M32.5184 14.4002C32.1483 16.0192 31.7783 17.6382 31.4082 19.2571C31.2232 20.0898 31.0382 20.9224 30.7606 21.7087C30.3443 22.8189 29.6042 23.6515 28.3553 23.8828C27.0139 24.1141 26.0425 23.4665 25.95 22.0788C25.9037 21.5237 25.95 20.9686 26.0887 20.4598C26.5976 18.3783 27.1526 16.2967 27.754 14.2152C27.8927 13.7064 28.2165 13.2438 28.5403 12.8738C29.1879 12.1337 30.4831 11.8561 31.4082 12.2724C32.2871 12.6425 32.4721 13.4751 32.5184 14.4002ZM31.362 14.724C31.4082 13.2438 30.7144 12.735 29.6967 13.2438C29.3729 13.3826 29.0491 13.7064 28.9566 14.0302C28.2628 16.528 27.6152 19.0721 27.0139 21.57C26.9213 21.94 27.1526 22.5876 27.4302 22.7264C27.8002 22.9114 28.4016 22.8189 28.7716 22.5876C29.1879 22.3563 29.4654 21.8938 29.6967 21.4312C29.928 21.0149 30.0205 20.5061 30.1593 19.9972C30.6219 18.147 31.0382 16.2505 31.362 14.724Z" fill="white"/>
<path d="M49.5405 21.4774C50.0956 18.7946 50.5119 16.0192 51.6683 13.5213C51.8996 13.0125 52.4084 12.55 52.9172 12.3187C53.7036 11.9024 54.5825 11.9024 55.3226 12.4575C56.1552 13.105 56.1552 14.0302 55.9702 14.9553C55.6464 16.6205 55.2301 18.2395 54.86 19.8585C54.675 20.5523 54.5362 21.2924 54.2124 21.94C53.9811 22.4488 53.5648 23.0039 53.1485 23.3277C52.3622 23.9753 51.3908 24.1603 50.4657 23.6515C49.633 23.2352 49.5868 22.3563 49.5405 21.4774ZM50.4194 21.4774C50.6507 21.9863 50.7895 22.6801 51.067 22.7264C51.5296 22.8651 52.1771 22.6801 52.5934 22.4488C52.9635 22.2175 53.241 21.755 53.3798 21.2924C53.6573 20.5523 53.8424 19.766 54.0274 18.9796C54.3974 17.4069 54.7675 15.8804 54.9988 14.2615C55.1375 13.2438 54.4437 12.7812 53.4723 13.1976C53.1023 13.3826 52.686 13.7526 52.5472 14.0764C51.8071 16.528 51.1132 18.9796 50.4194 21.4774Z" fill="white"/>
<path d="M102.643 23.4202C104.355 23.4202 105.095 24.2991 104.771 26.0568C104.493 27.6758 104.077 29.2485 103.753 30.8212C103.198 33.1803 102.689 35.4931 102.134 37.8522C101.764 39.5174 100.562 40.6276 99.1277 40.7201C97.555 40.8126 96.3986 39.6562 96.7686 38.0835C97.6475 34.0592 98.5726 30.0811 99.544 26.0568C100.007 24.1603 100.978 23.4202 102.643 23.4202ZM103.753 25.9181C103.753 24.6691 103.568 24.4379 102.736 24.4379C101.487 24.3916 100.839 24.9929 100.469 26.6119C99.544 30.4512 98.6651 34.3367 97.7863 38.2222C97.555 39.2399 98.2951 39.9337 99.3127 39.7025C100.33 39.4249 100.839 38.6848 101.07 37.7134C101.672 35.1693 102.273 32.6252 102.828 30.0811C103.198 28.5547 103.522 27.0282 103.753 25.9181Z" fill="white"/>
<path d="M75.583 10.931C77.4795 10.931 78.2659 11.7174 77.9884 13.3363C77.6183 15.4179 77.1095 17.4994 76.6469 19.5809C76.1844 21.57 75.7681 23.559 75.3055 25.5017C75.028 26.6119 74.3804 27.4445 73.3165 27.9071C72.4376 28.3234 71.5587 28.3696 70.7724 27.7221C69.9398 27.0745 69.801 26.2418 70.0323 25.2705C70.4948 23.2352 70.9574 21.1999 71.42 19.1646C71.79 17.4994 72.1601 15.8342 72.5764 14.1689C72.7151 13.6601 72.8539 13.1513 73.0852 12.6887C73.5478 11.4861 74.4729 10.8847 75.583 10.931ZM76.9707 13.3363C77.017 12.3187 76.7857 12.0411 76.0456 11.9949C74.8892 11.9024 74.3804 12.2262 73.9178 13.2901C73.7328 13.7064 73.594 14.1227 73.5015 14.5852C72.6689 18.2395 71.79 21.94 71.0037 25.5943C70.9111 26.0106 71.0499 26.7044 71.3737 26.9357C71.6975 27.167 72.3451 27.167 72.7614 27.0282C73.6865 26.7044 74.1028 25.9181 74.3341 24.9467C74.7967 22.9114 75.2592 20.8761 75.7218 18.8408C76.1844 16.8981 76.6007 15.0016 76.9707 13.3363Z" fill="white"/>
</g>
<defs>
<clipPath id="clip0_10422_39140">
<rect width="118" height="96.4908" fill="white" transform="translate(0 0.754593)"/>
</clipPath>
</defs>
</svg>
